<svg width="21" height="21" viewBox="0 0 21 21" fill="none" xmlns="http://www.w3.org/2000/svg">
<g clip-path="url(#clip0_46_121)">
<g clip-path="url(#clip1_46_121)">
<path d="M19.7958 11.385L18.2125 5.68834C17.7484 4.01945 16.7398 2.55358 15.3469 1.52373C13.9541 0.493884 12.257 -0.0408381 10.5254 0.00456195C8.79375 0.049962 7.12699 0.672879 5.79004 1.7743C4.45308 2.87571 3.52266 4.39243 3.14665 6.08334L1.92082 11.5958C1.78541 12.205 1.78854 12.8367 1.92998 13.4444C2.07141 14.0522 2.34754 14.6204 2.73797 15.1071C3.1284 15.5939 3.62317 15.9867 4.18574 16.2566C4.74832 16.5266 5.36434 16.6667 5.98832 16.6667H6.91665C7.10791 17.6086 7.61893 18.4554 8.3631 19.0637C9.10728 19.6719 10.0389 20.0042 11 20.0042C11.9611 20.0042 12.8927 19.6719 13.6369 19.0637C14.381 18.4554 14.8921 17.6086 15.0833 16.6667H15.7817C16.424 16.6667 17.0576 16.5183 17.6331 16.2329C18.2086 15.9475 18.7103 15.5329 19.099 15.0216C19.4877 14.5102 19.753 13.9159 19.874 13.285C19.995 12.6542 19.9685 12.0039 19.7966 11.385H19.7958ZM11 18.3333C10.4848 18.3312 9.98279 18.1699 9.56274 17.8716C9.14268 17.5733 8.82505 17.1524 8.65332 16.6667H13.3467C13.1749 17.1524 12.8573 17.5733 12.4372 17.8716C12.0172 18.1699 11.5152 18.3312 11 18.3333ZM17.7717 14.0125C17.5394 14.3206 17.2386 14.5702 16.893 14.7416C16.5474 14.9131 16.1666 15.0015 15.7808 15H5.98832C5.61397 14.9999 5.24442 14.9158 4.90694 14.7538C4.56945 14.5918 4.27266 14.3561 4.03845 14.0641C3.80425 13.7721 3.63862 13.4312 3.55379 13.0665C3.46895 12.7019 3.46709 12.3229 3.54832 11.9575L4.77332 6.44417C5.06861 5.11601 5.79941 3.92468 6.84953 3.05955C7.89966 2.19442 9.20884 1.70515 10.569 1.66952C11.9291 1.63389 13.2621 2.05394 14.3561 2.8629C15.4501 3.67186 16.2422 4.8233 16.6067 6.13417L18.19 11.8308C18.2946 12.202 18.3113 12.5924 18.2386 12.9711C18.166 13.3498 18.0061 13.7064 17.7717 14.0125Z" fill="#C2C2C2"/>
</g>
</g>
<defs>
<clipPath id="clip0_46_121">
<rect width="20" height="20" fill="white" transform="translate(0.591064 0.0504761)"/>
</clipPath>
<clipPath id="clip1_46_121">
<rect width="20" height="20" fill="white" transform="translate(1)"/>
</clipPath>
</defs>
</svg>
