<svg width="20" height="20" viewBox="0 0 20 20" fill="none" xmlns="http://www.w3.org/2000/svg">
<g clip-path="url(#clip0_352_1671)">
<path d="M16.2792 2.60164L14.8992 1.21997C14.5131 0.831898 14.0538 0.524253 13.548 0.314841C13.0422 0.105429 12.4999 -0.00159244 11.9525 -2.88885e-05H6.66667C5.562 0.00129433 4.50296 0.440706 3.72185 1.22182C2.94073 2.00294 2.50132 3.06198 2.5 4.16664V15.8333C2.50132 16.938 2.94073 17.997 3.72185 18.7781C4.50296 19.5592 5.562 19.9987 6.66667 20H13.3333C14.438 19.9987 15.497 19.5592 16.2782 18.7781C17.0593 17.997 17.4987 16.938 17.5 15.8333V5.54747C17.5013 5.00012 17.3941 4.45794 17.1846 3.9523C16.975 3.44665 16.6673 2.98758 16.2792 2.60164ZM15.1008 3.77997C15.219 3.89774 15.3249 4.0273 15.4167 4.16664H13.3333V2.0833C13.4724 2.17607 13.6022 2.28212 13.7208 2.39997L15.1008 3.77997ZM15.8333 15.8333C15.8333 16.4963 15.5699 17.1322 15.1011 17.6011C14.6323 18.0699 13.9964 18.3333 13.3333 18.3333H6.66667C6.00363 18.3333 5.36774 18.0699 4.8989 17.6011C4.43006 17.1322 4.16667 16.4963 4.16667 15.8333V4.16664C4.16667 3.5036 4.43006 2.86771 4.8989 2.39887C5.36774 1.93003 6.00363 1.66664 6.66667 1.66664H11.6667V4.16664C11.6667 4.60867 11.8423 5.03259 12.1548 5.34515C12.4674 5.65771 12.8913 5.83331 13.3333 5.83331H15.8333V15.8333ZM13.3333 7.49997C13.5543 7.49997 13.7663 7.58777 13.9226 7.74405C14.0789 7.90033 14.1667 8.11229 14.1667 8.33331C14.1667 8.55432 14.0789 8.76628 13.9226 8.92256C13.7663 9.07884 13.5543 9.16664 13.3333 9.16664H6.66667C6.44565 9.16664 6.23369 9.07884 6.07741 8.92256C5.92113 8.76628 5.83333 8.55432 5.83333 8.33331C5.83333 8.11229 5.92113 7.90033 6.07741 7.74405C6.23369 7.58777 6.44565 7.49997 6.66667 7.49997H13.3333ZM14.1667 11.6666C14.1667 11.8877 14.0789 12.0996 13.9226 12.2559C13.7663 12.4122 13.5543 12.5 13.3333 12.5H6.66667C6.44565 12.5 6.23369 12.4122 6.07741 12.2559C5.92113 12.0996 5.83333 11.8877 5.83333 11.6666C5.83333 11.4456 5.92113 11.2337 6.07741 11.0774C6.23369 10.9211 6.44565 10.8333 6.66667 10.8333H13.3333C13.5543 10.8333 13.7663 10.9211 13.9226 11.0774C14.0789 11.2337 14.1667 11.4456 14.1667 11.6666ZM14.0067 14.5108C14.1362 14.689 14.1899 14.9113 14.156 15.129C14.1221 15.3467 14.0034 15.5421 13.8258 15.6725C12.9815 16.2741 11.9815 16.6193 10.9458 16.6666C10.3407 16.6637 9.75402 16.4584 9.27917 16.0833C9.00583 15.8958 8.90167 15.8333 8.69583 15.8333C8.13869 15.9195 7.61301 16.1474 7.16917 16.495C6.99312 16.6205 6.7752 16.6726 6.56141 16.6405C6.34762 16.6083 6.15471 16.4943 6.0234 16.3225C5.8921 16.1508 5.83268 15.9347 5.85771 15.72C5.88273 15.5052 5.99023 15.3086 6.1575 15.1716C6.89182 14.6016 7.77357 14.2529 8.69917 14.1666C9.25428 14.1755 9.79094 14.3674 10.2258 14.7125C10.4241 14.8908 10.6793 14.9927 10.9458 15C11.6272 14.9489 12.2825 14.7161 12.8433 14.3258C13.0222 14.1962 13.2452 14.1428 13.4633 14.1775C13.6814 14.2122 13.8769 14.3321 14.0067 14.5108Z" fill="white"/>
</g>
<defs>
<clipPath id="clip0_352_1671">
<rect width="20" height="20" fill="white"/>
</clipPath>
</defs>
</svg>
