<svg width="180" height="180" viewBox="-1 -1 27 27"
    xmlns="http://www.w3.org/2000/svg"
    xmlns:xlink="http://www.w3.org/1999/xlink" shape-rendering="crispEdges" id="qr code">
    <rect id="qr background" fill-opacity="1" fill="rgb(255, 255, 255)" x="-1" y="-1" width="27" height="27"></rect>
    <path fill-opacity="1" fill="rgb(0, 0, 0)" id="qr dark pixels" fill-rule="evenodd" d="M 8 0 L 9 0 L 9 1 L 8 1 z M 12 0 L 14 0 L 14 1 L 13 1 L 13 2 L 16 2 L 16 1 L 17 1 L 17 3 L 16 3 L 16 4 L 17 4 L 17 5 L 15 5 L 15 4 L 13 4 L 13 3 L 12 3 L 12 2 L 11 2 L 11 4 L 9 4 L 9 5 L 8 5 L 8 2 L 9 2 L 9 1 L 12 1 z M 12 4 L 13 4 L 13 5 L 12 5 z M 10 5 L 11 5 L 11 9 L 12 9 L 12 11 L 14 11 L 14 10 L 15 10 L 15 12 L 18 12 L 18 10 L 19 10 L 19 9 L 20 9 L 20 10 L 21 10 L 21 11 L 19 11 L 19 13 L 20 13 L 20 12 L 21 12 L 21 16 L 24 16 L 24 15 L 25 15 L 25 19 L 22 19 L 22 17 L 21 17 L 21 20 L 22 20 L 22 21 L 23 21 L 23 20 L 25 20 L 25 22 L 24 22 L 24 23 L 23 23 L 23 24 L 25 24 L 25 25 L 19 25 L 19 24 L 20 24 L 20 21 L 19 21 L 19 23 L 18 23 L 18 22 L 16 22 L 16 20 L 15 20 L 15 19 L 16 19 L 16 16 L 15 16 L 15 15 L 17 15 L 17 14 L 15 14 L 15 15 L 14 15 L 14 14 L 13 14 L 13 13 L 9 13 L 9 14 L 8 14 L 8 13 L 6 13 L 6 12 L 7 12 L 7 11 L 8 11 L 8 12 L 9 12 L 9 11 L 8 11 L 8 10 L 10 10 zM 18 14 L 20 14 L 20 15 L 18 15 z M 17 17 L 20 17 L 20 20 L 17 20 z M 23 17 L 24 17 L 24 18 L 23 18 z M 21 22 L 22 22 L 22 24 L 21 24 z M 8 6 L 9 6 L 9 7 L 8 7 z M 12 6 L 13 6 L 13 7 L 12 7 z M 14 6 L 15 6 L 15 7 L 14 7 z M 16 6 L 17 6 L 17 7 L 16 7 z M 0 8 L 4 8 L 4 9 L 2 9 L 2 12 L 1 12 L 1 11 L 0 11 L 0 10 L 1 10 L 1 9 L 0 9 z M 6 8 L 7 8 L 7 9 L 6 9 z M 8 8 L 9 8 L 9 9 L 8 9 z M 12 8 L 13 8 L 13 9 L 12 9 z M 14 8 L 18 8 L 18 9 L 17 9 L 17 10 L 16 10 L 16 9 L 14 9 z M 20 8 L 23 8 L 23 9 L 20 9 z M 24 8 L 25 8 L 25 9 L 24 9 z M 4 9 L 6 9 L 6 10 L 7 10 L 7 11 L 4 11 z M 23 9 L 24 9 L 24 10 L 23 10 z M 3 11 L 4 11 L 4 12 L 3 12 z M 21 11 L 23 11 L 23 12 L 25 12 L 25 14 L 24 14 L 24 13 L 22 13 L 22 12 L 21 12 z M 0 12 L 1 12 L 1 13 L 0 13 z M 2 12 L 3 12 L 3 17 L 2 17 L 2 15 L 1 15 L 1 13 L 2 13 z M 4 12 L 5 12 L 5 13 L 6 13 L 6 14 L 5 14 L 5 15 L 6 15 L 6 16 L 7 16 L 7 15 L 8 15 L 8 17 L 5 17 L 5 16 L 4 16 z M 6 14 L 7 14 L 7 15 L 6 15 z M 9 14 L 11 14 L 11 16 L 10 16 L 10 15 L 9 15 z M 12 14 L 13 14 L 13 16 L 14 16 L 14 18 L 13 18 L 13 19 L 12 19 L 12 18 L 11 18 L 11 19 L 9 19 L 9 18 L 8 18 L 8 17 L 9 17 L 9 16 L 10 16 L 10 17 L 12 17 z M 22 14 L 24 14 L 24 15 L 22 15 z M 0 15 L 1 15 L 1 16 L 0 16 z M 18 18 L 19 18 L 19 19 L 18 19 z M 9 20 L 11 20 L 11 21 L 12 21 L 12 22 L 13 22 L 13 23 L 14 23 L 14 24 L 15 24 L 15 25 L 8 25 L 8 21 L 9 21 L 9 22 L 10 22 L 10 23 L 9 23 L 9 24 L 10 24 L 10 23 L 11 23 L 11 22 L 10 22 L 10 21 L 9 21 z M 12 20 L 13 20 L 13 21 L 12 21 z M 14 20 L 15 20 L 15 22 L 14 22 z M 15 22 L 16 22 L 16 23 L 15 23 z"></path>
    <path id="qr squares" d="M0,0h7h0v0v7v0h0h-7h0v0v-7v0h0zM1,1h5h0v0v5v0h0h-5h0v0v-5v0h0zM2,2h3h0v0v3v0h0h-3h0v0v-3v0h0z M18,0h7h0v0v7v0h0h-7h0v0v-7v0h0zM19,1h5h0v0v5v0h0h-5h0v0v-5v0h0zM20,2h3h0v0v3v0h0h-3h0v0v-3v0h0z M0,18h7h0v0v7v0h0h-7h0v0v-7v0h0zM1,19h5h0v0v5v0h0h-5h0v0v-5v0h0zM2,20h3h0v0v3v0h0h-3h0v0v-3v0h0z" fill-rule="evenodd" fill-opacity="1" fill="rgb(0, 0, 0)"></path>
</svg>