<svg width="129" height="58" viewBox="0 0 129 58" fill="none" xmlns="http://www.w3.org/2000/svg">
<path d="M23.1738 37.2109C23.1738 38.4902 22.9492 39.667 22.5 40.7412C22.0605 41.8154 21.4502 42.7432 20.6689 43.5244C19.8877 44.2959 18.96 44.9014 17.8857 45.3408C16.8115 45.7803 15.6445 46 14.3848 46H4.10156C3.82812 46 3.57422 45.9512 3.33984 45.8535C3.10547 45.7559 2.90039 45.624 2.72461 45.458C2.55859 45.2822 2.42676 45.0771 2.3291 44.8428C2.23145 44.6084 2.18262 44.3545 2.18262 44.0811V26.9131C2.18262 26.6494 2.23145 26.4004 2.3291 26.166C2.42676 25.9316 2.55859 25.7266 2.72461 25.5508C2.90039 25.375 3.10547 25.2383 3.33984 25.1406C3.57422 25.043 3.82812 24.9941 4.10156 24.9941H14.3848C15.6445 24.9941 16.8115 25.2139 17.8857 25.6533C18.96 26.0928 19.8877 26.7031 20.6689 27.4844C21.4502 28.2559 22.0605 29.1836 22.5 30.2676C22.9492 31.3418 23.1738 32.5137 23.1738 33.7832V37.2109ZM19.3652 33.7832C19.3652 33.041 19.2432 32.3623 18.999 31.7471C18.7646 31.1318 18.4277 30.6094 17.9883 30.1797C17.5488 29.7402 17.0215 29.4033 16.4062 29.1689C15.8008 28.9248 15.127 28.8027 14.3848 28.8027H5.99121V42.1914H14.3848C15.127 42.1914 15.8008 42.0742 16.4062 41.8398C17.0215 41.5957 17.5488 41.2588 17.9883 40.8291C18.4277 40.3896 18.7646 39.8672 18.999 39.2617C19.2432 38.6465 19.3652 37.9629 19.3652 37.2109V33.7832ZM45.7178 46H31.9775C31.626 46 31.2451 45.9609 30.835 45.8828C30.4346 45.7949 30.0342 45.6631 29.6338 45.4873C29.2432 45.3115 28.8672 45.0869 28.5059 44.8135C28.1445 44.5303 27.8223 44.1934 27.5391 43.8027C27.2656 43.4023 27.0459 42.9434 26.8799 42.4258C26.7139 41.8984 26.6309 41.3076 26.6309 40.6533V30.3408C26.6309 29.9893 26.6699 29.6133 26.748 29.2129C26.8359 28.8027 26.9678 28.4023 27.1436 28.0117C27.3193 27.6113 27.5488 27.2305 27.832 26.8691C28.1152 26.5078 28.4521 26.1904 28.8428 25.917C29.2432 25.6338 29.7021 25.4092 30.2197 25.2432C30.7373 25.0771 31.3232 24.9941 31.9775 24.9941H45.7178V28.8027H31.9775C31.4795 28.8027 31.0986 28.9346 30.835 29.1982C30.5713 29.4619 30.4395 29.8525 30.4395 30.3701V40.6533C30.4395 41.1416 30.5713 41.5225 30.835 41.7959C31.1084 42.0596 31.4893 42.1914 31.9775 42.1914H45.7178V46ZM80.0391 41.3857C80.0391 41.8545 79.9561 42.3574 79.79 42.8945C79.6338 43.4316 79.3701 43.9297 78.999 44.3887C78.6377 44.8477 78.1641 45.2334 77.5781 45.5459C76.9922 45.8486 76.2744 46 75.4248 46H60.9668C60.6934 46 60.4395 45.9512 60.2051 45.8535C59.9707 45.7559 59.7656 45.624 59.5898 45.458C59.4238 45.2822 59.292 45.0771 59.1943 44.8428C59.0967 44.6084 59.0479 44.3545 59.0479 44.0811V26.9131C59.0479 26.6494 59.0967 26.4004 59.1943 26.166C59.292 25.9316 59.4238 25.7266 59.5898 25.5508C59.7656 25.375 59.9707 25.2383 60.2051 25.1406C60.4395 25.043 60.6934 24.9941 60.9668 24.9941H73.7109C74.1797 24.9941 74.6826 25.0771 75.2197 25.2432C75.7568 25.4092 76.2549 25.6777 76.7139 26.0488C77.1826 26.4102 77.5684 26.8838 77.8711 27.4697C78.1836 28.0557 78.3398 28.7734 78.3398 29.623V30.3408C78.3398 31.0146 78.2275 31.7422 78.0029 32.5234C77.7783 33.2949 77.417 34.0273 76.9189 34.7207C77.3486 34.9844 77.749 35.3018 78.1201 35.6729C78.501 36.0439 78.833 36.4736 79.1162 36.9619C79.3994 37.4502 79.624 38.002 79.79 38.6172C79.9561 39.2324 80.0391 39.9111 80.0391 40.6533V41.3857ZM76.2305 40.6533C76.2305 40.1553 76.1523 39.7109 75.9961 39.3203C75.8398 38.9199 75.6201 38.5781 75.3369 38.2949C75.0537 38.0117 74.7119 37.7969 74.3115 37.6504C73.9111 37.4941 73.4619 37.416 72.9639 37.416H64.3799V33.5781H71.25C71.748 33.5781 72.1973 33.5049 72.5977 33.3584C72.998 33.2021 73.3398 32.9824 73.623 32.6992C73.9062 32.416 74.1211 32.0791 74.2676 31.6885C74.4238 31.2881 74.502 30.8389 74.502 30.3408V29.623C74.502 29.0762 74.2383 28.8027 73.7109 28.8027H62.8564V42.1914H75.4248C75.4932 42.1914 75.5762 42.1865 75.6738 42.1768C75.7715 42.167 75.8594 42.1377 75.9375 42.0889C76.0156 42.04 76.084 41.957 76.1426 41.8398C76.2012 41.7227 76.2305 41.5615 76.2305 41.3564V40.6533ZM105.41 37.5039C105.41 38.7832 105.19 39.96 104.751 41.0342C104.312 42.1084 103.701 43.0361 102.92 43.8174C102.139 44.5986 101.211 45.209 100.137 45.6484C99.0723 46.0781 97.9102 46.293 96.6504 46.293H91.4941C90.2344 46.293 89.0674 46.0781 87.9932 45.6484C86.9189 45.209 85.9912 44.5986 85.21 43.8174C84.4287 43.0361 83.8135 42.1084 83.3643 41.0342C82.9248 39.96 82.7051 38.7832 82.7051 37.5039V33.4902C82.7051 32.2207 82.9248 31.0488 83.3643 29.9746C83.8135 28.8906 84.4287 27.9629 85.21 27.1914C85.9912 26.4102 86.9189 25.7998 87.9932 25.3604C89.0674 24.9209 90.2344 24.7012 91.4941 24.7012H96.6504C97.9102 24.7012 99.0723 24.9209 100.137 25.3604C101.211 25.7998 102.139 26.4102 102.92 27.1914C103.701 27.9629 104.312 28.8906 104.751 29.9746C105.19 31.0488 105.41 32.2207 105.41 33.4902V37.5039ZM101.602 33.4902C101.602 32.7383 101.479 32.0596 101.235 31.4541C101.001 30.8389 100.664 30.3164 100.225 29.8867C99.7949 29.4473 99.2725 29.1104 98.6572 28.876C98.0518 28.6318 97.3828 28.5098 96.6504 28.5098H91.4941C90.752 28.5098 90.0732 28.6318 89.458 28.876C88.8525 29.1104 88.3301 29.4473 87.8906 29.8867C87.4512 30.3164 87.1094 30.8389 86.8652 31.4541C86.6309 32.0596 86.5137 32.7383 86.5137 33.4902V37.5039C86.5137 38.2559 86.6309 38.9395 86.8652 39.5547C87.1094 40.1602 87.4512 40.6826 87.8906 41.1221C88.3301 41.5518 88.8525 41.8887 89.458 42.1328C90.0732 42.3672 90.752 42.4844 91.4941 42.4844H96.6211C97.3633 42.4844 98.0371 42.3672 98.6426 42.1328C99.2578 41.8887 99.7852 41.5518 100.225 41.1221C100.664 40.6826 101.001 40.1602 101.235 39.5547C101.479 38.9395 101.602 38.2559 101.602 37.5039V33.4902ZM127.866 28.8027H119.473V46H115.664V28.8027H107.256V24.9941H127.866V28.8027Z" fill="#313A33"/>
</svg>
