<svg width="293" height="300" viewBox="0 0 293 300" fill="none" xmlns="http://www.w3.org/2000/svg">
<path d="M211.115 209.051L227.802 168.908L253.207 156.66L292.817 175.454L267.69 235.894L211.115 209.051Z" fill="#F4F4F4"/>
<path opacity="0.05" d="M272.466 202.201L231.966 182.864C231.571 182.675 231.109 182.864 230.932 183.286L230.932 183.286C230.756 183.708 230.933 184.202 231.327 184.39L271.827 203.728C272.221 203.916 272.684 203.727 272.861 203.306L272.861 203.306C273.037 202.884 272.86 202.39 272.466 202.201Z" fill="#292A2E"/>
<path opacity="0.05" d="M269.063 210.881L228.563 191.543C228.169 191.355 227.706 191.544 227.529 191.965L227.529 191.965C227.353 192.387 227.53 192.881 227.924 193.07L268.424 212.407C268.819 212.596 269.281 212.407 269.458 211.985L269.458 211.985C269.634 211.563 269.457 211.069 269.063 210.881Z" fill="#292A2E"/>
<path opacity="0.05" d="M248.693 211.612L225.088 200.421C224.898 200.33 224.683 200.324 224.489 200.403C224.295 200.482 224.139 200.64 224.054 200.843C224.012 200.943 223.989 201.051 223.986 201.161C223.983 201.271 224.001 201.38 224.037 201.482C224.074 201.585 224.129 201.679 224.2 201.759C224.271 201.838 224.355 201.902 224.449 201.947L248.054 213.139C248.244 213.229 248.459 213.236 248.653 213.156C248.847 213.077 249.003 212.919 249.088 212.717C249.173 212.514 249.179 212.284 249.105 212.077C249.031 211.87 248.883 211.703 248.693 211.612Z" fill="#292A2E"/>
<path opacity="0.4" d="M253.207 156.66L245 177.046L227.802 168.908L253.207 156.66Z" fill="white"/>
<path d="M9.26158 110.567L0 67.7713L13.4048 41.664L55.6317 31.2344L69.5732 95.6687L9.26158 110.567Z" fill="#F4F4F4"/>
<path opacity="0.05" d="M54.4256 65.6791L11.1821 76.2467C10.7608 76.3496 10.4974 76.7979 10.5938 77.248L10.5939 77.2483C10.6902 77.6984 11.1099 77.9798 11.5311 77.8769L54.7747 67.3093C55.1959 67.2064 55.4593 66.7581 55.363 66.308L55.3629 66.3076C55.2665 65.8576 54.8469 65.5762 54.4256 65.6791Z" fill="#292A2E"/>
<path opacity="0.05" d="M56.5918 74.8002L13.3483 85.3677C12.927 85.4707 12.6636 85.919 12.76 86.3691L12.7601 86.3694C12.8564 86.8195 13.276 87.1009 13.6973 86.9979L56.9409 76.4304C57.3621 76.3274 57.6255 75.8791 57.5292 75.429L57.5291 75.4287C57.4327 74.9786 57.0131 74.6972 56.5918 74.8002Z" fill="#292A2E"/>
<path opacity="0.05" d="M40.7277 88.4715L15.568 94.695C15.3656 94.7443 15.1898 94.8775 15.0793 95.0653C14.9689 95.2531 14.9327 95.4801 14.9789 95.6963C15.0017 95.8035 15.0441 95.9047 15.1036 95.9944C15.1631 96.084 15.2385 96.1602 15.3256 96.2187C15.4127 96.2771 15.5097 96.3166 15.6111 96.335C15.7125 96.3534 15.8163 96.3502 15.9165 96.3257L41.0763 90.1022C41.2787 90.0528 41.4545 89.9195 41.5649 89.7316C41.6754 89.5438 41.7115 89.3167 41.6653 89.1005C41.619 88.8843 41.4942 88.6966 41.3184 88.5786C41.1426 88.4607 40.9301 88.4221 40.7277 88.4715Z" fill="#292A2E"/>
<path opacity="0.4" d="M13.4048 41.664L18.3212 63.2257L0 67.7713L13.4048 41.664Z" fill="white"/>
<path d="M210.322 241.756H41.1221C38.8384 241.756 36.6482 240.787 35.0333 239.061C33.4185 237.336 32.5112 234.996 32.5111 232.556L38.4019 28.4971H224.498L218.934 232.556C218.934 233.764 218.711 234.961 218.279 236.077C217.846 237.193 217.211 238.207 216.412 239.062C215.612 239.916 214.663 240.594 213.618 241.056C212.573 241.518 211.453 241.756 210.322 241.756Z" fill="#616161"/>
<path opacity="0.9" d="M210.322 241.756H41.1221C38.8384 241.756 36.6482 240.787 35.0333 239.061C33.4185 237.336 32.5112 234.996 32.5111 232.556L38.4019 28.4971H224.498L218.934 232.556C218.934 233.764 218.711 234.961 218.279 236.077C217.846 237.193 217.211 238.207 216.412 239.062C215.612 239.916 214.663 240.594 213.618 241.056C212.573 241.518 211.453 241.756 210.322 241.756Z" fill="white"/>
<path d="M210.322 242.105H41.1221C38.7523 242.102 36.4803 241.095 34.8046 239.305C33.1288 237.515 32.1862 235.088 32.1835 232.556L38.0743 28.1474H224.825L219.261 232.556C219.258 235.088 218.316 237.515 216.64 239.305C214.964 241.095 212.692 242.102 210.322 242.105ZM38.7285 28.8467L32.8377 232.556C32.8402 234.902 33.7139 237.152 35.267 238.811C36.8201 240.47 38.9258 241.403 41.1221 241.406H210.322C212.519 241.403 214.624 240.47 216.177 238.811C217.73 237.152 218.604 234.902 218.606 232.556L224.17 28.8467H38.7285Z" fill="#616161"/>
<path d="M216.54 8.26364H47.3401C44.9703 8.26642 42.6982 9.27342 41.0225 11.0637C39.3467 12.854 38.4041 15.2814 38.4015 17.8132L38.0743 28.8467H224.824L225.479 17.8132C225.476 15.2814 224.534 12.854 222.858 11.0637C221.182 9.27342 218.91 8.26642 216.54 8.26364Z" fill="#0C0C0C"/>
<path d="M219.813 8.26364H48.6492C46.2793 8.26642 44.0073 9.27342 42.3315 11.0637C40.6558 12.854 39.7132 15.2814 39.7106 17.8132V28.8467H228.752V17.8132C228.749 15.2814 227.807 12.854 226.131 11.0637C224.455 9.27342 222.183 8.26642 219.813 8.26364Z" fill="#616161"/>
<path d="M40.0376 28.4953H228.424V236.053C228.424 238.493 227.517 240.833 225.902 242.558C224.287 244.283 222.097 245.252 219.813 245.252H48.6492C46.3654 245.252 44.1752 244.283 42.5603 242.558C40.9454 240.833 40.0382 238.493 40.0382 236.053V28.4953H40.0376Z" fill="white"/>
<path d="M219.813 245.602H48.6492C46.2794 245.599 44.0074 244.592 42.3317 242.802C40.6559 241.011 39.7133 238.584 39.7106 236.052V28.1474H228.752V236.052C228.749 238.584 227.806 241.011 226.131 242.802C224.455 244.592 222.183 245.599 219.813 245.602ZM40.3648 28.8467V236.052C40.3673 238.399 41.241 240.648 42.7941 242.307C44.3472 243.967 46.4529 244.9 48.6492 244.902H219.813C222.009 244.9 224.115 243.966 225.668 242.307C227.221 240.648 228.094 238.399 228.097 236.052V28.8467H40.3648Z" fill="#616161"/>
<path d="M73.4077 71.5998H54.6034C53.5553 71.5986 52.5505 71.1533 51.8094 70.3615C51.0682 69.5698 50.6513 68.4963 50.6501 67.3765V47.2865C50.6513 46.1667 51.0682 45.0932 51.8094 44.3015C52.5505 43.5098 53.5553 43.0644 54.6034 43.0632H73.4077C74.4558 43.0645 75.4605 43.5099 76.2016 44.3016C76.9427 45.0934 77.3595 46.1668 77.3608 47.2865V67.3765C77.3595 68.4962 76.9427 69.5697 76.2016 70.3614C75.4605 71.1531 74.4558 71.5985 73.4077 71.5998ZM54.6034 43.7625C53.7289 43.7635 52.8904 44.1351 52.272 44.7958C51.6536 45.4564 51.3057 46.3521 51.3046 47.2865V67.3765C51.3057 68.3109 51.6536 69.2066 52.272 69.8673C52.8904 70.5279 53.7289 70.8995 54.6034 70.9005H73.4077C74.2822 70.8994 75.1206 70.5278 75.739 69.8671C76.3573 69.2065 76.7052 68.3108 76.7062 67.3765V47.2865C76.7052 46.3522 76.3573 45.4565 75.739 44.7959C75.1206 44.1352 74.2822 43.7636 73.4077 43.7625H54.6034Z" fill="#616161"/>
<path d="M73.4077 111.402H54.6034C53.5553 111.4 52.5505 110.955 51.8094 110.163C51.0682 109.372 50.6513 108.298 50.6501 107.178V87.0886C50.651 85.9686 51.0677 84.8947 51.8089 84.1026C52.55 83.3105 53.5551 82.8649 54.6034 82.8636H73.4077C74.4558 82.8649 75.4606 83.3104 76.2017 84.1022C76.9428 84.894 77.3596 85.9675 77.3608 87.0872V107.177C77.3599 108.297 76.9432 109.371 76.2021 110.163C75.461 110.955 74.456 111.4 73.4077 111.402ZM54.6034 83.5629C53.7289 83.564 52.8904 83.9357 52.272 84.5964C51.6535 85.2571 51.3057 86.1529 51.3046 87.0872V107.177C51.3057 108.111 51.6536 109.007 52.272 109.668C52.8904 110.328 53.7289 110.7 54.6034 110.701H73.4077C74.2823 110.7 75.1207 110.328 75.7391 109.668C76.3575 109.007 76.7053 108.111 76.7062 107.177V87.0886C76.7056 86.1541 76.358 85.2579 75.7395 84.5969C75.1211 83.9359 74.2825 83.564 73.4077 83.5629H54.6034Z" fill="#616161"/>
<path d="M73.4077 151.203H54.6034C53.5553 151.202 52.5505 150.757 51.8094 149.965C51.0682 149.173 50.6513 148.1 50.6501 146.98V126.89C50.6513 125.771 51.0682 124.697 51.8094 123.906C52.5505 123.114 53.5553 122.668 54.6034 122.667H73.4077C74.4558 122.669 75.4605 123.114 76.2016 123.906C76.9427 124.697 77.3595 125.771 77.3608 126.89V146.98C77.3595 148.1 76.9427 149.173 76.2016 149.965C75.4605 150.757 74.4558 151.202 73.4077 151.203ZM54.6034 123.367C53.7289 123.368 52.8904 123.739 52.272 124.4C51.6536 125.06 51.3057 125.956 51.3046 126.89V146.98C51.3057 147.915 51.6536 148.81 52.272 149.471C52.8904 150.132 53.7289 150.503 54.6034 150.504H73.4077C74.2823 150.503 75.1207 150.132 75.7391 149.471C76.3575 148.81 76.7053 147.915 76.7062 146.98V126.89C76.7053 125.956 76.3575 125.06 75.7391 124.4C75.1207 123.739 74.2823 123.368 73.4077 123.367H54.6034Z" fill="#616161"/>
<path d="M73.4077 190.458H54.6034C53.5553 190.457 52.5505 190.012 51.8094 189.22C51.0682 188.428 50.6513 187.355 50.6501 186.235V166.147C50.6513 165.027 51.0682 163.954 51.8093 163.162C52.5505 162.37 53.5553 161.925 54.6034 161.923H73.4077C74.4558 161.925 75.4606 162.37 76.2017 163.162C76.9428 163.954 77.3596 165.027 77.3608 166.147V186.237C77.3592 187.356 76.9422 188.429 76.2011 189.221C75.4601 190.012 74.4555 190.457 73.4077 190.458ZM54.6034 162.621C53.7288 162.622 52.8903 162.994 52.2719 163.655C51.6534 164.315 51.3056 165.211 51.3046 166.145V186.235C51.3057 187.17 51.6536 188.065 52.272 188.726C52.8904 189.387 53.7289 189.758 54.6034 189.759H73.4077C74.2822 189.758 75.1206 189.386 75.739 188.726C76.3573 188.065 76.7052 187.169 76.7062 186.235V166.147C76.7054 165.213 76.3576 164.317 75.7392 163.656C75.1208 162.995 74.2823 162.624 73.4077 162.623L54.6034 162.621Z" fill="#616161"/>
<path d="M73.4077 229.713H54.6034C53.5553 229.712 52.5505 229.267 51.8093 228.475C51.0682 227.683 50.6513 226.61 50.6501 225.49V205.4C50.6513 204.28 51.0682 203.207 51.8093 202.415C52.5505 201.623 53.5553 201.178 54.6034 201.177H73.4077C74.4558 201.178 75.4606 201.623 76.2017 202.415C76.9428 203.207 77.3596 204.28 77.3608 205.4V225.49C77.3596 226.61 76.9428 227.683 76.2017 228.475C75.4606 229.267 74.4558 229.712 73.4077 229.713ZM54.6034 201.876C53.7289 201.877 52.8904 202.249 52.272 202.909C51.6535 203.57 51.3057 204.466 51.3046 205.4V225.49C51.3057 226.424 51.6535 227.32 52.272 227.981C52.8904 228.641 53.7289 229.013 54.6034 229.014H73.4077C74.2823 229.013 75.1207 228.641 75.7391 227.981C76.3575 227.32 76.7053 226.424 76.7062 225.49V205.4C76.7053 204.466 76.3575 203.57 75.7391 202.909C75.1207 202.249 74.2823 201.877 73.4077 201.876H54.6034Z" fill="#616161"/>
<path d="M60.6598 65.3689C60.3215 65.3694 59.9964 65.2293 59.753 64.9784L54.2719 59.3493C54.1461 59.2225 54.0451 59.0703 53.9746 58.9016C53.9042 58.7328 53.8657 58.5508 53.8615 58.3661C53.8572 58.1814 53.8873 57.9976 53.95 57.8253C54.0126 57.6531 54.1066 57.4959 54.2264 57.3626C54.3463 57.2294 54.4897 57.1229 54.6483 57.0493C54.8069 56.9756 54.9776 56.9363 55.1506 56.9335C55.3235 56.9307 55.4952 56.9646 55.6558 57.0332C55.8164 57.1017 55.9627 57.2036 56.0863 57.3329L60.6376 62.0065L72.0486 49.7084C72.1691 49.5758 72.3131 49.47 72.4721 49.3972C72.6312 49.3243 72.8022 49.2859 72.9752 49.2842C73.1482 49.2824 73.3199 49.3173 73.4802 49.3868C73.6405 49.4563 73.7864 49.5591 73.9093 49.6893C74.0322 49.8194 74.1297 49.9743 74.1962 50.1449C74.2628 50.3156 74.297 50.4986 74.2969 50.6835C74.2968 50.8683 74.2623 51.0514 74.1956 51.2219C74.1289 51.3925 74.0312 51.5472 73.9081 51.6772L61.5919 64.9546C61.47 65.0863 61.3248 65.1908 61.1648 65.2619C61.0048 65.333 60.8331 65.3694 60.6598 65.3689Z" fill="#FF8550"/>
<path d="M60.6598 105.17C60.3216 105.171 59.9965 105.031 59.753 104.78L54.2719 99.1507C54.0216 98.8937 53.8771 98.5409 53.8703 98.1701C53.8634 97.7992 53.9947 97.4406 54.2353 97.1732C54.4759 96.9058 54.8061 96.7514 55.1532 96.7441C55.5003 96.7367 55.836 96.877 56.0863 97.134L60.6376 101.808L72.0486 89.5102C72.2939 89.2512 72.6249 89.106 72.9697 89.1063C73.3146 89.1065 73.6454 89.2521 73.8904 89.5114C74.1353 89.7708 74.2746 90.1229 74.2779 90.4913C74.2812 90.8598 74.1484 91.2147 73.9081 91.479L61.5919 104.756C61.47 104.888 61.3248 104.992 61.1648 105.064C61.0048 105.135 60.8331 105.171 60.6598 105.17Z" fill="#FF8550"/>
<path d="M60.6598 144.973C60.3216 144.973 59.9965 144.833 59.753 144.582L54.2719 138.953C54.0216 138.696 53.8771 138.343 53.8703 137.973C53.8634 137.602 53.9947 137.243 54.2353 136.976C54.4759 136.708 54.8061 136.554 55.1532 136.547C55.5003 136.539 55.836 136.68 56.0863 136.937L60.6376 141.61L72.0486 129.312C72.2939 129.053 72.6249 128.908 72.9697 128.908C73.3146 128.908 73.6454 129.054 73.8904 129.313C74.1353 129.573 74.2746 129.925 74.2779 130.293C74.2812 130.662 74.1484 131.017 73.9081 131.281L61.5919 144.558C61.47 144.69 61.3249 144.794 61.1648 144.866C61.0048 144.937 60.8331 144.973 60.6598 144.973Z" fill="#FF8550"/>
<path opacity="0.5" d="M214.286 51.1111H87.6385C87.134 51.1111 86.7251 51.548 86.7251 52.087C86.7251 52.6259 87.134 53.0628 87.6385 53.0628H214.286C214.79 53.0628 215.199 52.6259 215.199 52.087C215.199 51.548 214.79 51.1111 214.286 51.1111Z" fill="#494949"/>
<path opacity="0.5" d="M161.924 61.6002H87.6385C87.134 61.6002 86.7251 62.0371 86.7251 62.5761C86.7251 63.115 87.134 63.5519 87.6385 63.5519H161.924C162.428 63.5519 162.837 63.115 162.837 62.5761C162.837 62.0371 162.428 61.6002 161.924 61.6002Z" fill="#494949"/>
<path opacity="0.5" d="M214.286 90.913H87.6385C87.134 90.913 86.7251 91.3499 86.7251 91.8888C86.7251 92.4277 87.134 92.8646 87.6385 92.8646H214.286C214.79 92.8646 215.199 92.4277 215.199 91.8888C215.199 91.3499 214.79 90.913 214.286 90.913Z" fill="#494949"/>
<path opacity="0.5" d="M161.924 101.402H87.6385C87.134 101.402 86.7251 101.839 86.7251 102.378C86.7251 102.917 87.134 103.354 87.6385 103.354H161.924C162.428 103.354 162.837 102.917 162.837 102.378C162.837 101.839 162.428 101.402 161.924 101.402Z" fill="#494949"/>
<path opacity="0.5" d="M214.286 130.715H87.6385C87.134 130.715 86.7251 131.152 86.7251 131.691C86.7251 132.23 87.134 132.666 87.6385 132.666H214.286C214.79 132.666 215.199 132.23 215.199 131.691C215.199 131.152 214.79 130.715 214.286 130.715Z" fill="#494949"/>
<path opacity="0.5" d="M161.924 141.204H87.6385C87.134 141.204 86.7251 141.641 86.7251 142.18C86.7251 142.719 87.134 143.156 87.6385 143.156H161.924C162.428 143.156 162.837 142.719 162.837 142.18C162.837 141.641 162.428 141.204 161.924 141.204Z" fill="#494949"/>
<path opacity="0.5" d="M214.286 169.97H87.6385C87.134 169.97 86.7251 170.407 86.7251 170.946C86.7251 171.485 87.134 171.921 87.6385 171.921H214.286C214.79 171.921 215.199 171.485 215.199 170.946C215.199 170.407 214.79 169.97 214.286 169.97Z" fill="#494949"/>
<path opacity="0.5" d="M161.924 180.459H87.6385C87.134 180.459 86.7251 180.896 86.7251 181.435C86.7251 181.974 87.134 182.411 87.6385 182.411H161.924C162.428 182.411 162.837 181.974 162.837 181.435C162.837 180.896 162.428 180.459 161.924 180.459Z" fill="#494949"/>
<path opacity="0.5" d="M214.286 209.224H87.6385C87.134 209.224 86.7251 209.661 86.7251 210.2C86.7251 210.739 87.134 211.176 87.6385 211.176H214.286C214.79 211.176 215.199 210.739 215.199 210.2C215.199 209.661 214.79 209.224 214.286 209.224Z" fill="#494949"/>
<path opacity="0.5" d="M161.924 219.714H87.6385C87.134 219.714 86.7251 220.15 86.7251 220.689C86.7251 221.228 87.134 221.665 87.6385 221.665H161.924C162.428 221.665 162.837 221.228 162.837 220.689C162.837 220.15 162.428 219.714 161.924 219.714Z" fill="#494949"/>
<path d="M62.6744 2.08498e-07C60.6237 0.00249874 58.6577 0.873932 57.2076 2.42312C55.7576 3.97232 54.9419 6.07275 54.9395 8.26364H55.5941C55.5939 6.81202 55.9847 5.39101 56.7198 4.1702C57.455 2.94939 58.5033 1.98034 59.7399 1.37869C60.9764 0.777049 62.3489 0.568228 63.6935 0.777149C65.0381 0.986071 66.298 1.60391 67.3229 2.55694C68.3478 3.50996 69.0944 4.75791 69.4735 6.15186C69.8527 7.54581 69.8484 9.02688 69.4613 10.4183C69.0741 11.8097 68.3203 13.0528 67.2899 13.999C66.2596 14.9453 64.9961 15.5549 63.6503 15.7549C63.537 15.5053 63.3437 15.3072 63.1055 15.1965C62.8673 15.0859 62.5999 15.07 62.3517 15.1517C62.1035 15.2334 61.8908 15.4073 61.7522 15.642C61.6136 15.8766 61.5582 16.1566 61.596 16.4311C61.6338 16.7056 61.7623 16.9567 61.9583 17.1387C62.1543 17.3208 62.4049 17.4219 62.6646 17.4238C62.9243 17.4257 63.1761 17.3282 63.3744 17.1489C63.5727 16.9696 63.7043 16.7205 63.7456 16.4465C65.6854 16.1572 67.4502 15.0924 68.6837 13.467C69.9173 11.8417 70.5277 9.77684 70.3918 7.68939C70.2558 5.60193 69.3836 3.64732 67.9513 2.22015C66.5189 0.792971 64.6331 -0.000469579 62.6744 2.08498e-07Z" fill="#F4F4F4"/>
<path d="M213.522 8.26364C213.522 6.07199 212.707 3.9701 211.257 2.42036C209.806 0.870631 207.839 0 205.787 0C203.736 0 201.768 0.870631 200.318 2.42036C198.867 3.9701 198.052 6.07199 198.052 8.26364H198.707C198.707 6.81202 199.097 5.39101 199.833 4.1702C200.568 2.94939 201.616 1.98034 202.853 1.37869C204.089 0.777049 205.462 0.568227 206.806 0.777149C208.151 0.98607 209.411 1.60391 210.436 2.55694C211.461 3.50996 212.207 4.75791 212.586 6.15186C212.965 7.54581 212.961 9.02688 212.574 10.4183C212.187 11.8097 211.433 13.0528 210.403 13.999C209.372 14.9453 208.109 15.5549 206.763 15.7549C206.65 15.5053 206.456 15.3072 206.218 15.1965C205.98 15.0859 205.713 15.07 205.464 15.1517C205.216 15.2334 205.004 15.4073 204.865 15.642C204.726 15.8766 204.671 16.1566 204.709 16.4311C204.747 16.7056 204.875 16.9567 205.071 17.1387C205.267 17.3208 205.518 17.4219 205.777 17.4238C206.037 17.4257 206.289 17.3282 206.487 17.1489C206.685 16.9696 206.817 16.7205 206.858 16.4465C208.705 16.1682 210.396 15.1873 211.62 13.6841C212.844 12.1808 213.52 10.2562 213.522 8.26364Z" fill="#F4F4F4"/>
<path d="M193.078 8.26364C193.064 6.08125 192.243 3.99309 190.794 2.4549C189.345 0.916712 187.385 0.0534058 185.342 0.0534058C183.3 0.0534058 181.34 0.916712 179.891 2.4549C178.442 3.99309 177.621 6.08125 177.607 8.26364H178.262C178.262 6.81192 178.652 5.3908 179.388 4.16987C180.123 2.94894 181.171 1.97978 182.408 1.37806C183.644 0.776338 185.017 0.567472 186.362 0.776389C187.706 0.985306 188.966 1.60318 189.991 2.55627C191.016 3.50936 191.763 4.75741 192.142 6.15146C192.521 7.54552 192.517 9.02669 192.13 10.4182C191.742 11.8097 190.989 13.0528 189.958 13.9991C188.928 14.9454 187.664 15.5549 186.318 15.7549C186.205 15.5053 186.012 15.3072 185.773 15.1965C185.535 15.0859 185.268 15.07 185.02 15.1517C184.771 15.2334 184.559 15.4073 184.42 15.642C184.281 15.8766 184.226 16.1566 184.264 16.4311C184.302 16.7056 184.43 16.9567 184.626 17.1387C184.822 17.3208 185.073 17.422 185.332 17.4238C185.592 17.4257 185.844 17.3282 186.042 17.1489C186.241 16.9696 186.372 16.7205 186.413 16.4465C188.26 16.1683 189.951 15.1874 191.175 13.6842C192.4 12.1809 193.075 10.2562 193.078 8.26364Z" fill="#F4F4F4"/>
<path d="M172.633 8.26364C172.62 6.08125 171.799 3.99309 170.35 2.4549C168.901 0.916712 166.941 0.0534058 164.898 0.0534058C162.855 0.0534058 160.895 0.916712 159.446 2.4549C157.997 3.99309 157.176 6.08125 157.163 8.26364H157.817C157.817 6.81201 158.208 5.39097 158.943 4.17012C159.678 2.94926 160.727 1.98014 161.963 1.37841C163.2 0.776679 164.572 0.567751 165.917 0.776559C167.261 0.985367 168.521 1.60309 169.546 2.55602C170.571 3.50894 171.318 4.75682 171.697 6.15073C172.077 7.54465 172.073 9.02573 171.686 10.4172C171.299 11.8087 170.545 13.0519 169.515 13.9984C168.484 14.9448 167.221 15.5546 165.875 15.7549C165.762 15.5053 165.569 15.3072 165.331 15.1965C165.092 15.0859 164.825 15.07 164.577 15.1517C164.328 15.2334 164.116 15.4073 163.977 15.642C163.839 15.8766 163.783 16.1566 163.821 16.4311C163.859 16.7056 163.987 16.9567 164.183 17.1387C164.379 17.3208 164.63 17.422 164.89 17.4238C165.149 17.4257 165.401 17.3282 165.599 17.1489C165.798 16.9696 165.929 16.7205 165.971 16.4465C167.817 16.1679 169.508 15.1869 170.731 13.6837C171.955 12.1805 172.631 10.256 172.633 8.26364Z" fill="#F4F4F4"/>
<path d="M152.188 8.26364C152.188 6.07199 151.373 3.9701 149.923 2.42036C148.472 0.870631 146.505 0 144.453 0C142.402 0 140.434 0.870631 138.984 2.42036C137.533 3.9701 136.718 6.07199 136.718 8.26364H137.373C137.373 6.81202 137.764 5.39101 138.499 4.1702C139.234 2.94939 140.282 1.98034 141.519 1.37869C142.755 0.777049 144.128 0.568227 145.472 0.777149C146.817 0.98607 148.077 1.60391 149.102 2.55693C150.127 3.50996 150.873 4.75791 151.252 6.15186C151.632 7.54581 151.627 9.02688 151.24 10.4183C150.853 11.8097 150.099 13.0528 149.069 13.999C148.038 14.9453 146.775 15.5549 145.429 15.7549C145.316 15.5051 145.123 15.3068 144.884 15.196C144.646 15.0851 144.379 15.0691 144.13 15.1506C143.882 15.2322 143.669 15.4061 143.53 15.6408C143.392 15.8754 143.336 16.1554 143.374 16.4301C143.412 16.7048 143.54 16.9559 143.736 17.1382C143.932 17.3204 144.183 17.4217 144.442 17.4237C144.702 17.4257 144.954 17.3282 145.153 17.149C145.351 16.9697 145.483 16.7206 145.524 16.4465C147.371 16.1683 149.062 15.1874 150.286 13.6842C151.51 12.1809 152.186 10.2562 152.188 8.26364Z" fill="#F4F4F4"/>
<path d="M131.744 8.26364C131.73 6.08125 130.91 3.99309 129.46 2.4549C128.011 0.916712 126.051 0.0534058 124.009 0.0534058C121.966 0.0534058 120.006 0.916712 118.557 2.4549C117.108 3.99309 116.287 6.08125 116.273 8.26364H116.928C116.928 6.81192 117.319 5.3908 118.054 4.16987C118.789 2.94894 119.837 1.97978 121.074 1.37806C122.31 0.776338 123.683 0.567472 125.028 0.776389C126.372 0.985306 127.632 1.60318 128.657 2.55627C129.682 3.50936 130.429 4.75741 130.808 6.15146C131.187 7.54552 131.183 9.02669 130.796 10.4182C130.409 11.8097 129.655 13.0528 128.624 13.9991C127.594 14.9454 126.33 15.5549 124.984 15.7549C124.871 15.5053 124.678 15.3072 124.439 15.1965C124.201 15.0859 123.934 15.07 123.686 15.1517C123.437 15.2334 123.225 15.4073 123.086 15.642C122.948 15.8766 122.892 16.1566 122.93 16.4311C122.968 16.7056 123.096 16.9567 123.292 17.1387C123.488 17.3208 123.739 17.422 123.999 17.4238C124.258 17.4257 124.51 17.3282 124.708 17.1489C124.907 16.9696 125.038 16.7205 125.08 16.4465C126.926 16.1683 128.617 15.1874 129.841 13.6842C131.066 12.1809 131.741 10.2562 131.744 8.26364Z" fill="#F4F4F4"/>
<path d="M111.299 8.26364C111.299 6.07199 110.484 3.9701 109.033 2.42036C107.583 0.870631 105.615 0 103.564 0C101.512 0 99.545 0.870631 98.0945 2.42036C96.6439 3.9701 95.829 6.07199 95.829 8.26364H96.4835C96.4834 6.81202 96.8742 5.39101 97.6093 4.1702C98.3444 2.94939 99.3928 1.98033 100.629 1.37869C101.866 0.777049 103.238 0.568227 104.583 0.777148C105.927 0.98607 107.187 1.60391 108.212 2.55693C109.237 3.50996 109.984 4.75791 110.363 6.15186C110.742 7.54581 110.738 9.02688 110.351 10.4183C109.963 11.8097 109.21 13.0528 108.179 13.999C107.149 14.9453 105.886 15.5549 104.54 15.7549C104.427 15.5051 104.233 15.3068 103.995 15.196C103.757 15.0851 103.489 15.0691 103.241 15.1506C102.993 15.2322 102.78 15.4061 102.641 15.6408C102.502 15.8754 102.447 16.1554 102.484 16.4301C102.522 16.7048 102.651 16.9559 102.847 17.1382C103.043 17.3204 103.293 17.4217 103.553 17.4237C103.813 17.4257 104.065 17.3282 104.263 17.149C104.462 16.9697 104.593 16.7206 104.635 16.4465C106.482 16.1683 108.172 15.1874 109.397 13.6842C110.621 12.1809 111.296 10.2562 111.299 8.26364Z" fill="#F4F4F4"/>
<path d="M90.8542 8.26364C90.8409 6.08125 90.0201 3.99309 88.571 2.4549C87.1218 0.916712 85.162 0.0534058 83.1192 0.0534058C81.0764 0.0534058 79.1165 0.916712 77.6673 2.4549C76.2182 3.99309 75.3974 6.08125 75.3841 8.26364H76.0386C76.0384 6.81192 76.4292 5.3908 77.1643 4.16987C77.8994 2.94894 78.9478 1.97978 80.1845 1.37806C81.4211 0.776338 82.7936 0.567472 84.1383 0.776389C85.483 0.985306 86.743 1.60318 87.768 2.55627C88.7929 3.50936 89.5396 4.75741 89.9188 6.15146C90.2979 7.54552 90.2936 9.02669 89.9064 10.4182C89.5191 11.8097 88.7653 13.0528 87.7348 13.9991C86.7043 14.9454 85.4408 15.5549 84.0949 15.7549C83.9815 15.5053 83.7883 15.3072 83.5501 15.1965C83.3119 15.0859 83.0445 15.07 82.7962 15.1517C82.548 15.2334 82.3354 15.4073 82.1967 15.642C82.0581 15.8766 82.0027 16.1566 82.0405 16.4311C82.0783 16.7056 82.2069 16.9567 82.4029 17.1387C82.5989 17.3208 82.8494 17.422 83.1091 17.4238C83.3689 17.4257 83.6207 17.3282 83.8189 17.1489C84.0172 16.9696 84.1489 16.7205 84.1901 16.4465C86.037 16.1683 87.7278 15.1874 88.952 13.6842C90.1763 12.1809 90.8517 10.2562 90.8542 8.26364Z" fill="#F4F4F4"/>
<g opacity="0.6">
<path d="M62.6744 2.08498e-07C60.6237 0.00249874 58.6577 0.873932 57.2076 2.42312C55.7576 3.97232 54.9419 6.07275 54.9395 8.26364H55.5941C55.5939 6.81202 55.9847 5.39101 56.7198 4.1702C57.455 2.94939 58.5033 1.98034 59.7399 1.37869C60.9764 0.777049 62.3489 0.568228 63.6935 0.777149C65.0381 0.986071 66.298 1.60391 67.3229 2.55694C68.3478 3.50996 69.0944 4.75791 69.4735 6.15186C69.8527 7.54581 69.8484 9.02688 69.4613 10.4183C69.0741 11.8097 68.3203 13.0528 67.2899 13.999C66.2596 14.9453 64.9961 15.5549 63.6503 15.7549C63.537 15.5053 63.3437 15.3072 63.1055 15.1965C62.8673 15.0859 62.5999 15.07 62.3517 15.1517C62.1035 15.2334 61.8908 15.4073 61.7522 15.642C61.6136 15.8766 61.5582 16.1566 61.596 16.4311C61.6338 16.7056 61.7623 16.9567 61.9583 17.1387C62.1543 17.3208 62.4049 17.4219 62.6646 17.4238C62.9243 17.4257 63.1761 17.3282 63.3744 17.1489C63.5727 16.9696 63.7043 16.7205 63.7456 16.4465C65.6854 16.1572 67.4502 15.0924 68.6837 13.467C69.9173 11.8417 70.5277 9.77684 70.3918 7.68939C70.2558 5.60193 69.3836 3.64732 67.9513 2.22015C66.5189 0.792971 64.6331 -0.000469579 62.6744 2.08498e-07Z" fill="#616161"/>
<path d="M213.522 8.26364C213.522 6.07199 212.707 3.9701 211.257 2.42036C209.806 0.870631 207.839 0 205.787 0C203.736 0 201.768 0.870631 200.318 2.42036C198.867 3.9701 198.052 6.07199 198.052 8.26364H198.707C198.707 6.81202 199.097 5.39101 199.833 4.1702C200.568 2.94939 201.616 1.98034 202.853 1.37869C204.089 0.777049 205.462 0.568227 206.806 0.777149C208.151 0.98607 209.411 1.60391 210.436 2.55694C211.461 3.50996 212.207 4.75791 212.586 6.15186C212.965 7.54581 212.961 9.02688 212.574 10.4183C212.187 11.8097 211.433 13.0528 210.403 13.999C209.372 14.9453 208.109 15.5549 206.763 15.7549C206.65 15.5053 206.456 15.3072 206.218 15.1965C205.98 15.0859 205.713 15.07 205.464 15.1517C205.216 15.2334 205.004 15.4073 204.865 15.642C204.726 15.8766 204.671 16.1566 204.709 16.4311C204.747 16.7056 204.875 16.9567 205.071 17.1387C205.267 17.3208 205.518 17.4219 205.777 17.4238C206.037 17.4257 206.289 17.3282 206.487 17.1489C206.685 16.9696 206.817 16.7205 206.858 16.4465C208.705 16.1682 210.396 15.1873 211.62 13.6841C212.844 12.1808 213.52 10.2562 213.522 8.26364Z" fill="#616161"/>
<path d="M193.078 8.26364C193.064 6.08125 192.243 3.99309 190.794 2.4549C189.345 0.916712 187.385 0.0534058 185.342 0.0534058C183.3 0.0534058 181.34 0.916712 179.891 2.4549C178.442 3.99309 177.621 6.08125 177.607 8.26364H178.262C178.262 6.81192 178.652 5.3908 179.388 4.16987C180.123 2.94894 181.171 1.97978 182.408 1.37806C183.644 0.776338 185.017 0.567472 186.362 0.776389C187.706 0.985306 188.966 1.60318 189.991 2.55627C191.016 3.50936 191.763 4.75741 192.142 6.15146C192.521 7.54552 192.517 9.02669 192.13 10.4182C191.742 11.8097 190.989 13.0528 189.958 13.9991C188.928 14.9454 187.664 15.5549 186.318 15.7549C186.205 15.5053 186.012 15.3072 185.773 15.1965C185.535 15.0859 185.268 15.07 185.02 15.1517C184.771 15.2334 184.559 15.4073 184.42 15.642C184.281 15.8766 184.226 16.1566 184.264 16.4311C184.302 16.7056 184.43 16.9567 184.626 17.1387C184.822 17.3208 185.073 17.422 185.332 17.4238C185.592 17.4257 185.844 17.3282 186.042 17.1489C186.241 16.9696 186.372 16.7205 186.413 16.4465C188.26 16.1683 189.951 15.1874 191.175 13.6842C192.4 12.1809 193.075 10.2562 193.078 8.26364Z" fill="#616161"/>
<path d="M172.633 8.26364C172.62 6.08125 171.799 3.99309 170.35 2.4549C168.901 0.916712 166.941 0.0534058 164.898 0.0534058C162.855 0.0534058 160.895 0.916712 159.446 2.4549C157.997 3.99309 157.176 6.08125 157.163 8.26364H157.817C157.817 6.81201 158.208 5.39097 158.943 4.17012C159.678 2.94926 160.727 1.98014 161.963 1.37841C163.2 0.776679 164.572 0.567751 165.917 0.776559C167.261 0.985367 168.521 1.60309 169.546 2.55602C170.571 3.50894 171.318 4.75682 171.697 6.15073C172.077 7.54465 172.073 9.02573 171.686 10.4172C171.299 11.8087 170.545 13.0519 169.515 13.9984C168.484 14.9448 167.221 15.5546 165.875 15.7549C165.762 15.5053 165.569 15.3072 165.331 15.1965C165.092 15.0859 164.825 15.07 164.577 15.1517C164.328 15.2334 164.116 15.4073 163.977 15.642C163.839 15.8766 163.783 16.1566 163.821 16.4311C163.859 16.7056 163.987 16.9567 164.183 17.1387C164.379 17.3208 164.63 17.422 164.89 17.4238C165.149 17.4257 165.401 17.3282 165.599 17.1489C165.798 16.9696 165.929 16.7205 165.971 16.4465C167.817 16.1679 169.508 15.1869 170.731 13.6837C171.955 12.1805 172.631 10.256 172.633 8.26364Z" fill="#616161"/>
<path d="M152.188 8.26364C152.188 6.07199 151.373 3.9701 149.923 2.42036C148.472 0.870631 146.505 0 144.453 0C142.402 0 140.434 0.870631 138.984 2.42036C137.533 3.9701 136.718 6.07199 136.718 8.26364H137.373C137.373 6.81202 137.764 5.39101 138.499 4.1702C139.234 2.94939 140.282 1.98034 141.519 1.37869C142.755 0.777049 144.128 0.568227 145.472 0.777149C146.817 0.98607 148.077 1.60391 149.102 2.55693C150.127 3.50996 150.873 4.75791 151.252 6.15186C151.632 7.54581 151.627 9.02688 151.24 10.4183C150.853 11.8097 150.099 13.0528 149.069 13.999C148.038 14.9453 146.775 15.5549 145.429 15.7549C145.316 15.5051 145.123 15.3068 144.884 15.196C144.646 15.0851 144.379 15.0691 144.13 15.1506C143.882 15.2322 143.669 15.4061 143.53 15.6408C143.392 15.8754 143.336 16.1554 143.374 16.4301C143.412 16.7048 143.54 16.9559 143.736 17.1382C143.932 17.3204 144.183 17.4217 144.442 17.4237C144.702 17.4257 144.954 17.3282 145.153 17.149C145.351 16.9697 145.483 16.7206 145.524 16.4465C147.371 16.1683 149.062 15.1874 150.286 13.6842C151.51 12.1809 152.186 10.2562 152.188 8.26364Z" fill="#616161"/>
<path d="M131.744 8.26364C131.73 6.08125 130.91 3.99309 129.46 2.4549C128.011 0.916712 126.051 0.0534058 124.009 0.0534058C121.966 0.0534058 120.006 0.916712 118.557 2.4549C117.108 3.99309 116.287 6.08125 116.273 8.26364H116.928C116.928 6.81192 117.319 5.3908 118.054 4.16987C118.789 2.94894 119.837 1.97978 121.074 1.37806C122.31 0.776338 123.683 0.567472 125.028 0.776389C126.372 0.985306 127.632 1.60318 128.657 2.55627C129.682 3.50936 130.429 4.75741 130.808 6.15146C131.187 7.54552 131.183 9.02669 130.796 10.4182C130.409 11.8097 129.655 13.0528 128.624 13.9991C127.594 14.9454 126.33 15.5549 124.984 15.7549C124.871 15.5053 124.678 15.3072 124.439 15.1965C124.201 15.0859 123.934 15.07 123.686 15.1517C123.437 15.2334 123.225 15.4073 123.086 15.642C122.948 15.8766 122.892 16.1566 122.93 16.4311C122.968 16.7056 123.096 16.9567 123.292 17.1387C123.488 17.3208 123.739 17.422 123.999 17.4238C124.258 17.4257 124.51 17.3282 124.708 17.1489C124.907 16.9696 125.038 16.7205 125.08 16.4465C126.926 16.1683 128.617 15.1874 129.841 13.6842C131.066 12.1809 131.741 10.2562 131.744 8.26364Z" fill="#616161"/>
<path d="M111.299 8.26364C111.299 6.07199 110.484 3.9701 109.033 2.42036C107.583 0.870631 105.615 0 103.564 0C101.512 0 99.545 0.870631 98.0945 2.42036C96.6439 3.9701 95.829 6.07199 95.829 8.26364H96.4835C96.4834 6.81202 96.8742 5.39101 97.6093 4.1702C98.3444 2.94939 99.3928 1.98033 100.629 1.37869C101.866 0.777049 103.238 0.568227 104.583 0.777148C105.927 0.98607 107.187 1.60391 108.212 2.55693C109.237 3.50996 109.984 4.75791 110.363 6.15186C110.742 7.54581 110.738 9.02688 110.351 10.4183C109.963 11.8097 109.21 13.0528 108.179 13.999C107.149 14.9453 105.886 15.5549 104.54 15.7549C104.427 15.5051 104.233 15.3068 103.995 15.196C103.757 15.0851 103.489 15.0691 103.241 15.1506C102.993 15.2322 102.78 15.4061 102.641 15.6408C102.502 15.8754 102.447 16.1554 102.484 16.4301C102.522 16.7048 102.651 16.9559 102.847 17.1382C103.043 17.3204 103.293 17.4217 103.553 17.4237C103.813 17.4257 104.065 17.3282 104.263 17.149C104.462 16.9697 104.593 16.7206 104.635 16.4465C106.482 16.1683 108.172 15.1874 109.397 13.6842C110.621 12.1809 111.296 10.2562 111.299 8.26364Z" fill="#616161"/>
<path d="M90.8542 8.26364C90.8409 6.08125 90.0201 3.99309 88.571 2.4549C87.1218 0.916712 85.162 0.0534058 83.1192 0.0534058C81.0764 0.0534058 79.1165 0.916712 77.6673 2.4549C76.2182 3.99309 75.3974 6.08125 75.3841 8.26364H76.0386C76.0384 6.81192 76.4292 5.3908 77.1643 4.16987C77.8994 2.94894 78.9478 1.97978 80.1845 1.37806C81.4211 0.776338 82.7936 0.567472 84.1383 0.776389C85.483 0.985306 86.743 1.60318 87.768 2.55627C88.7929 3.50936 89.5396 4.75741 89.9188 6.15146C90.2979 7.54552 90.2936 9.02669 89.9064 10.4182C89.5191 11.8097 88.7653 13.0528 87.7348 13.9991C86.7043 14.9454 85.4408 15.5549 84.0949 15.7549C83.9815 15.5053 83.7883 15.3072 83.5501 15.1965C83.3119 15.0859 83.0445 15.07 82.7962 15.1517C82.548 15.2334 82.3354 15.4073 82.1967 15.642C82.0581 15.8766 82.0027 16.1566 82.0405 16.4311C82.0783 16.7056 82.2069 16.9567 82.4029 17.1387C82.5989 17.3208 82.8494 17.422 83.1091 17.4238C83.3689 17.4257 83.6207 17.3282 83.8189 17.1489C84.0172 16.9696 84.1489 16.7205 84.1901 16.4465C86.037 16.1683 87.7278 15.1874 88.952 13.6842C90.1763 12.1809 90.8517 10.2562 90.8542 8.26364Z" fill="#616161"/>
</g>
<path d="M271.626 103.776L272.546 102.966C272.836 102.701 273.02 102.328 273.062 101.923C273.104 101.518 273.001 101.112 272.773 100.785C272.65 100.621 272.496 100.485 272.323 100.386C272.149 100.287 271.958 100.227 271.762 100.21C271.565 100.193 271.368 100.218 271.181 100.285C270.994 100.352 270.822 100.458 270.676 100.599L259.755 110.956L262.774 114.779C263.711 115.966 264.96 116.828 266.358 117.252C267.757 117.677 269.243 117.645 270.625 117.162L276.881 114.961C277.208 114.853 277.49 114.628 277.68 114.324C277.869 114.019 277.955 113.654 277.922 113.29C277.836 112.573 271.626 103.776 271.626 103.776Z" fill="#E98862"/>
<path d="M265.099 103.856L234.973 113.829L216.601 80.5812L200.906 90.3861L224.066 130.373L224.213 130.573C225.427 132.182 227.081 133.346 228.944 133.904C230.806 134.462 232.786 134.385 234.606 133.685L270.516 119.788L265.099 103.856Z" fill="#A171EF"/>
<path d="M283.484 278.82L258.367 280.081L248.679 103.896L273.797 102.635L283.484 278.82Z" fill="#FF8550"/>
<path opacity="0.5" d="M283.484 278.82L258.367 280.081L248.679 103.896L273.797 102.635L283.484 278.82Z" fill="white"/>
<path d="M272.943 83.221L247.826 84.4823L248.68 103.894L273.797 102.632L272.943 83.221Z" fill="#494949"/>
<path d="M283.485 278.82C283.485 278.82 280.039 285.213 276.933 290.93C274.47 295.464 272.22 299.573 272.075 299.727C271.926 299.886 269.118 295.897 266.083 291.475C262.394 286.101 258.366 280.082 258.366 280.082L283.485 278.82Z" fill="#FF8550"/>
<path opacity="0.9" d="M283.485 278.82C283.485 278.82 280.039 285.213 276.933 290.93C274.47 295.464 272.22 299.573 272.075 299.727C271.926 299.886 269.118 295.897 266.083 291.475C262.394 286.101 258.366 280.082 258.366 280.082L283.485 278.82Z" fill="white"/>
<path d="M276.933 290.932C274.47 295.466 272.22 299.575 272.075 299.728C271.926 299.887 269.118 295.899 266.083 291.477L276.933 290.932Z" fill="#494949"/>
<path d="M275.661 279.162L265.531 103.085L266.677 103.023L276.807 279.1L275.661 279.162Z" fill="white"/>
<path d="M265.835 279.659L255.705 103.582L256.851 103.521L266.981 279.597L265.835 279.659Z" fill="white"/>
<path d="M270.019 111.991C270.019 111.653 270.122 111.324 270.313 111.054C270.503 110.784 270.772 110.588 271.076 110.496C271.065 110.471 271.023 110.419 271.064 110.402L269.871 110.176C269.518 110.117 269.197 109.925 268.967 109.633C268.737 109.341 268.613 108.97 268.619 108.589C268.636 108.212 268.784 107.856 269.033 107.589C269.282 107.322 269.615 107.164 269.968 107.144C269.959 107.132 269.962 107.115 269.958 107.1L269.467 107.007C269.134 106.951 268.831 106.774 268.607 106.505C268.383 106.237 268.252 105.894 268.238 105.535C268.233 105.31 268.275 105.086 268.361 104.88C268.447 104.674 268.575 104.491 268.735 104.344C268.895 104.198 269.084 104.091 269.287 104.031C269.491 103.971 269.704 103.961 269.912 104L271.043 104.214C271.043 104.208 271.039 104.203 271.04 104.196C271.04 104.189 271.049 104.183 271.051 104.175C270.754 104.041 270.507 103.804 270.353 103.501C270.198 103.198 270.144 102.848 270.2 102.509C270.292 101.622 271.272 101.292 272.004 101.43L274.277 102.06C274.627 102.157 274.95 102.345 275.217 102.607C275.483 102.869 275.684 103.198 275.803 103.563C276.832 106.727 279.334 115.06 276.999 114.618L271.25 113.53C270.914 113.456 270.611 113.264 270.388 112.986C270.165 112.707 270.036 112.357 270.019 111.991Z" fill="#F8D3C5"/>
<path d="M174.495 47.933C174.495 47.933 171.108 44.8009 170.64 38.1155C170.277 32.9409 174.495 36.5771 174.495 36.5771C174.495 36.5771 174.268 32.8472 176.765 33.3955C179.262 33.9437 180.43 37.9274 180.43 37.9274" fill="#0C0C0C"/>
<path d="M189.77 34.7611C189.77 34.7611 202.189 37.0893 196.531 54.8753H193.162" fill="#0C0C0C"/>
<path d="M198.639 278.077C198.639 278.077 202.613 285.249 197.529 290.672C192.446 296.095 197.398 299.56 197.398 299.56L217.908 280.141L208.826 269.194L198.639 278.077Z" fill="#A171EF"/>
<path d="M163.742 136.723C163.742 136.723 161.433 207.864 161.726 211.336C162.837 224.469 199.014 283.98 199.014 283.98L212.485 271.692L195.283 234.466L184.408 208.523C184.408 208.523 186.28 186.211 191.326 165.492C193.908 154.858 195.461 143.97 195.963 132.998L163.742 136.723Z" fill="#494949"/>
<path d="M197.975 284.377C197.975 284.377 196.498 292.558 189.326 293.016C182.155 293.474 183.711 299.576 183.711 299.576H211.116V284.948L197.975 284.377Z" fill="#A171EF"/>
<path d="M212.974 135.107C212.974 135.107 212.888 132.647 212.906 138.227C212.974 159.041 212.325 289.599 212.325 289.599L194.317 289.438L183.408 134.26L212.974 135.107Z" fill="#494949"/>
<path d="M187.106 187.158L185.629 163.03C185.629 163.03 184.112 173.061 184.112 181.707C184.112 185.933 184.927 202.665 184.927 202.665L187.106 187.158Z" fill="#494949"/>
<path d="M189.508 220.69L193.254 274.324L189.748 268.297L186.163 212.712L189.508 220.69Z" fill="#494949"/>
<path d="M175.783 73.3662C175.838 73.3585 176.449 84.2017 188.24 83.2566C196.403 82.6032 199.313 73.3508 199.5 73.3508C198.62 73.1511 197.533 72.8476 197.1 72.7438C196.158 72.5102 195.305 71.9757 194.654 71.2114C194.004 70.4471 193.586 69.4893 193.457 68.4653C193.219 66.9269 193.624 59.065 193.499 57.5098L180.969 60.4978C181.144 63.7819 182.37 71.396 178.075 72.7438C177.36 72.9665 176.591 73.1714 175.783 73.3662Z" fill="#F8D3C5"/>
<path opacity="0.52" d="M180.794 69.6321C180.99 68.9563 181.116 68.2597 181.17 67.5545C181.308 65.9454 181.281 64.325 181.089 62.7222C183.635 62.3549 186.035 61.2319 188.014 59.4807C188.246 60.3989 189.526 64.4106 189.172 65.2822C188.502 66.9315 185.355 69.6321 180.794 69.6321Z" fill="#0C0C0C"/>
<path d="M183.017 67.0122C187.979 66.8926 194.091 63.9861 194.625 56.8396L195.107 50.3912C195.64 43.2447 192.56 37.1519 186.262 36.6156C179.963 36.0786 174.823 41.4706 174.289 48.6172L174.076 51.472C174.019 52.4535 174.024 53.438 174.092 54.4187C174.256 57.0123 174.511 60.9569 175.978 63.7166C177.362 66.322 179.848 67.0884 183.017 67.0122Z" fill="#F8D3C5"/>
<path opacity="0.52" d="M181.139 60.3122C180.118 60.2885 179.117 60.0089 178.216 59.4958C178.197 59.486 178.179 59.4723 178.165 59.4553C178.151 59.4383 178.14 59.4185 178.133 59.3969C178.126 59.3754 178.123 59.3526 178.125 59.3299C178.126 59.3072 178.132 59.285 178.142 59.2647C178.151 59.2444 178.165 59.2264 178.181 59.2117C178.197 59.197 178.216 59.186 178.237 59.1792C178.257 59.1725 178.278 59.1701 178.3 59.1724C178.321 59.1746 178.341 59.1814 178.36 59.1923C180.305 60.2475 182.131 60.2443 183.641 59.1825C183.671 59.1599 183.703 59.1392 183.735 59.1203C183.773 59.1004 183.817 59.0975 183.857 59.1122C183.897 59.1269 183.93 59.158 183.949 59.1986C183.967 59.2392 183.97 59.286 183.956 59.3288C183.943 59.3715 183.914 59.4067 183.876 59.4265C183.863 59.4335 183.843 59.4479 183.816 59.4671C183.023 60.0271 182.09 60.3213 181.139 60.3122Z" fill="#0C0C0C"/>
<path opacity="0.52" d="M181.086 61.925C180.902 61.9239 180.718 61.906 180.537 61.8715C180.495 61.8638 180.458 61.8387 180.434 61.8017C180.409 61.7648 180.4 61.719 180.407 61.6745C180.414 61.63 180.438 61.5904 180.472 61.5644C180.507 61.5384 180.55 61.5281 180.591 61.5359C181.685 61.7401 182.245 61.2384 182.268 61.2167C182.3 61.1869 182.342 61.1719 182.384 61.1748C182.426 61.1778 182.465 61.1986 182.493 61.2326C182.521 61.2666 182.535 61.311 182.532 61.3561C182.53 61.4011 182.51 61.4432 182.478 61.473C182.077 61.7913 181.585 61.9511 181.086 61.925Z" fill="#0C0C0C"/>
<path d="M176.157 51.951C176.587 51.951 176.936 51.5787 176.936 51.1195C176.936 50.6603 176.587 50.2881 176.157 50.2881C175.728 50.2881 175.379 50.6603 175.379 51.1195C175.379 51.5787 175.728 51.951 176.157 51.951Z" fill="#0C0C0C"/>
<path d="M183.37 52.0034C183.799 52.0034 184.148 51.6312 184.148 51.172C184.148 50.7128 183.799 50.3405 183.37 50.3405C182.94 50.3405 182.591 50.7128 182.591 51.172C182.591 51.6312 182.94 52.0034 183.37 52.0034Z" fill="#0C0C0C"/>
<path d="M194.071 58.9835C195.985 59.1465 197.7 57.0913 197.853 55.0463C198.006 53.0013 196.538 51.7415 194.624 51.5783L193.536 52.8649L192.426 58.8437L194.071 58.9835Z" fill="#F8D3C5"/>
<path d="M161.133 97.2382C161.504 101.9 163.311 130.982 163.668 136.723H212.88C213.158 131.545 214.406 108.901 215.46 98.7742C216.467 89.111 218.441 83.9234 216.993 81.0665C214.629 76.3975 208.167 74.049 203.76 73.4116C201.07 73.0228 197.023 72.7438 197.023 72.7438C197.023 72.7438 196.68 80.1491 188.51 80.5613C177.388 81.1207 178.13 72.7438 178.075 72.7438C174.037 72.7438 166.395 73.7759 163.462 75.9066C156.867 80.6977 160.345 87.36 161.133 97.2382Z" fill="#A171EF"/>
<path d="M192.372 55.5571C192.372 55.5571 192.36 45.3901 189.524 44.5593C187.637 44.0062 182.816 46.5732 178.574 45.3901C176.718 44.8722 174.902 45.2418 174.661 46.1774C174.566 46.548 173.733 41.0658 176.934 37.1796C179.482 34.0856 187.21 33.7136 190.634 35.0331C200.111 38.6865 194.99 52.0513 194.99 52.0513L194.34 55.5099L192.372 55.5571Z" fill="#0C0C0C"/>
<g opacity="0.52">
<path d="M180.131 57.8392H180.119C179.502 57.7885 178.472 57.6294 178.507 57.1364C178.538 56.728 179.903 52.4044 180.058 51.9129C180.065 51.8919 180.075 51.8726 180.089 51.8559C180.103 51.8393 180.119 51.8257 180.138 51.8159C180.156 51.8061 180.176 51.8003 180.197 51.7988C180.218 51.7973 180.238 51.8002 180.258 51.8073C180.278 51.8143 180.296 51.8255 180.311 51.84C180.327 51.8546 180.34 51.8722 180.349 51.892C180.358 51.9118 180.363 51.9334 180.365 51.9554C180.366 51.9775 180.363 51.9996 180.357 52.0205C179.751 53.9355 178.842 56.885 178.822 57.1623C178.874 57.284 179.504 57.4507 180.143 57.5035C180.183 57.5074 180.22 57.5276 180.247 57.56C180.274 57.5924 180.288 57.6345 180.286 57.6777C180.285 57.7208 180.268 57.7617 180.239 57.7919C180.21 57.822 180.171 57.8392 180.131 57.8399V57.8392Z" fill="#0C0C0C"/>
</g>
<path d="M178.344 48.5672C178.101 48.4583 177.846 48.3848 177.585 48.3487C177.314 48.3086 177.04 48.3086 176.769 48.3487C176.497 48.385 176.232 48.4653 175.982 48.5868C175.728 48.7092 175.488 48.8651 175.27 49.0511L175.253 49.0651C175.196 49.1096 175.126 49.1291 175.056 49.1197C174.987 49.1102 174.923 49.0725 174.879 49.0143C174.835 48.9562 174.813 48.8821 174.819 48.8074C174.825 48.7327 174.857 48.6632 174.909 48.6133C175.151 48.3732 175.421 48.1667 175.711 47.9987C176.005 47.8266 176.322 47.7027 176.651 47.6312C177.323 47.4802 178.02 47.5265 178.669 47.7651C178.72 47.7842 178.767 47.8138 178.807 47.8522C178.847 47.8906 178.879 47.9371 178.902 47.9889C178.926 48.0408 178.939 48.097 178.942 48.1544C178.945 48.2118 178.937 48.2693 178.919 48.3235C178.902 48.3777 178.874 48.4277 178.838 48.4705C178.802 48.5132 178.758 48.548 178.71 48.5729C178.661 48.5977 178.609 48.6121 178.555 48.6152C178.501 48.6183 178.448 48.6101 178.397 48.591C178.387 48.5871 178.377 48.5833 178.368 48.5787L178.344 48.5672Z" fill="#0C0C0C"/>
<path d="M182.912 47.8344C183.239 47.7118 183.581 47.6397 183.927 47.6204C184.263 47.598 184.601 47.625 184.93 47.7005C185.259 47.772 185.576 47.8959 185.87 48.0679C186.161 48.2362 186.43 48.443 186.672 48.6833C186.725 48.7327 186.759 48.8023 186.765 48.8775C186.771 48.9527 186.75 49.0276 186.705 49.0863C186.661 49.145 186.597 49.183 186.527 49.1921C186.456 49.2013 186.386 49.1809 186.329 49.1354L186.311 49.1207C186.093 48.9347 185.854 48.7787 185.599 48.6564C185.35 48.5349 185.085 48.4545 184.813 48.4179C184.543 48.3779 184.269 48.3779 183.998 48.4179C183.737 48.454 183.482 48.5275 183.239 48.6364L183.216 48.6473C183.167 48.6705 183.114 48.6832 183.06 48.6846C183.006 48.6859 182.952 48.676 182.902 48.6552C182.852 48.6345 182.806 48.6034 182.767 48.5637C182.728 48.5241 182.697 48.4766 182.675 48.424C182.654 48.3715 182.642 48.3148 182.64 48.2573C182.639 48.1999 182.648 48.1427 182.668 48.0891C182.687 48.0355 182.716 47.9864 182.753 47.9448C182.791 47.9032 182.835 47.8699 182.884 47.8466C182.893 47.8424 182.903 47.8379 182.912 47.8344Z" fill="#0C0C0C"/>
<path d="M183.578 37.7031C184.154 35.5045 183.487 33.3834 182.089 32.9654C180.691 32.5474 179.091 33.9908 178.515 36.1894C177.939 38.3879 178.606 40.509 180.004 40.927C181.402 41.345 183.002 39.9016 183.578 37.7031Z" fill="#0C0C0C"/>
<path d="M159.216 144.321C159.419 144.246 159.604 144.125 159.758 143.964C159.912 143.804 160.03 143.61 160.105 143.395C160.18 143.18 160.209 142.95 160.191 142.721C160.172 142.493 160.107 142.272 159.999 142.073L160.948 143.808C161.133 144.164 161.438 144.431 161.801 144.556C162.164 144.681 162.558 144.654 162.903 144.48C163.078 144.384 163.233 144.251 163.359 144.089C163.484 143.926 163.577 143.738 163.632 143.536C163.687 143.335 163.703 143.123 163.679 142.914C163.655 142.705 163.592 142.504 163.492 142.322L163.921 143.107C164.089 143.426 164.354 143.673 164.673 143.807C164.991 143.941 165.343 143.953 165.669 143.842C165.872 143.767 166.057 143.645 166.211 143.485C166.365 143.325 166.484 143.131 166.558 142.916C166.633 142.701 166.663 142.471 166.644 142.242C166.626 142.014 166.56 141.792 166.452 141.594L165.699 140.219C165.893 140.574 166.211 140.831 166.583 140.936C166.955 141.04 167.35 140.982 167.682 140.775C168.442 140.37 168.392 139.254 168.011 138.557L166.596 135.742L167.531 136.532C167.835 136.779 168.215 136.893 168.594 136.852C168.973 136.81 169.324 136.617 169.575 136.31C169.699 136.147 169.791 135.958 169.845 135.756C169.899 135.554 169.913 135.342 169.888 135.133C169.863 134.924 169.798 134.723 169.698 134.542C169.597 134.361 169.463 134.204 169.304 134.08L160.801 128.351L154.665 128.812C153.776 130.042 153.251 131.526 153.157 133.077C153.063 134.627 153.404 136.172 154.137 137.513L157.468 143.585C157.635 143.904 157.901 144.151 158.219 144.285C158.538 144.419 158.89 144.432 159.216 144.321Z" fill="#F8D3C5"/>
<path d="M164.742 138.499C164.738 138.465 164.746 138.431 164.763 138.403C164.781 138.375 164.807 138.354 164.837 138.344C164.868 138.334 164.9 138.336 164.929 138.349C164.959 138.362 164.983 138.385 164.998 138.416L165.935 140.322C165.943 140.339 165.948 140.358 165.95 140.377C165.951 140.396 165.949 140.415 165.944 140.433C165.939 140.451 165.93 140.468 165.919 140.483C165.907 140.498 165.893 140.51 165.877 140.519C165.861 140.527 165.844 140.533 165.826 140.535C165.808 140.536 165.791 140.534 165.773 140.529C165.756 140.523 165.741 140.514 165.727 140.502C165.713 140.489 165.702 140.474 165.693 140.457L164.756 138.551C164.749 138.535 164.744 138.517 164.742 138.499Z" fill="#F8D3C5"/>
<path d="M162.218 139.919C162.215 139.885 162.223 139.851 162.24 139.823C162.257 139.795 162.283 139.774 162.314 139.764C162.344 139.755 162.376 139.756 162.405 139.769C162.434 139.781 162.459 139.804 162.474 139.834L163.778 142.439C163.787 142.456 163.792 142.474 163.794 142.493C163.795 142.512 163.794 142.532 163.789 142.55C163.783 142.568 163.775 142.585 163.764 142.6C163.752 142.615 163.738 142.627 163.722 142.636C163.707 142.645 163.689 142.651 163.672 142.653C163.654 142.655 163.636 142.653 163.619 142.647C163.602 142.642 163.586 142.633 163.572 142.62C163.558 142.608 163.546 142.593 163.538 142.577L162.234 139.971C162.225 139.955 162.22 139.937 162.218 139.919Z" fill="#F8D3C5"/>
<path d="M159.477 141.44C159.474 141.406 159.481 141.371 159.499 141.343C159.517 141.315 159.543 141.294 159.574 141.284C159.604 141.274 159.637 141.276 159.666 141.29C159.696 141.303 159.72 141.328 159.734 141.358L160.323 142.604C160.339 142.638 160.342 142.678 160.331 142.715C160.32 142.752 160.295 142.782 160.263 142.799C160.231 142.817 160.193 142.82 160.159 142.808C160.125 142.796 160.096 142.77 160.08 142.735L159.491 141.489C159.483 141.474 159.479 141.457 159.477 141.44Z" fill="#F8D3C5"/>
<path opacity="0.2" d="M164.742 138.499C164.738 138.465 164.746 138.431 164.763 138.403C164.781 138.375 164.807 138.354 164.837 138.344C164.868 138.334 164.9 138.336 164.929 138.349C164.959 138.362 164.983 138.385 164.998 138.416L165.935 140.322C165.943 140.339 165.948 140.358 165.95 140.377C165.951 140.396 165.949 140.415 165.944 140.433C165.939 140.451 165.93 140.468 165.919 140.483C165.907 140.498 165.893 140.51 165.877 140.519C165.861 140.527 165.844 140.533 165.826 140.535C165.808 140.536 165.791 140.534 165.773 140.529C165.756 140.523 165.741 140.514 165.727 140.502C165.713 140.489 165.702 140.474 165.693 140.457L164.756 138.551C164.749 138.535 164.744 138.517 164.742 138.499Z" fill="#0C0C0C"/>
<path opacity="0.2" d="M162.218 139.919C162.215 139.885 162.223 139.851 162.24 139.823C162.257 139.795 162.283 139.774 162.314 139.764C162.344 139.755 162.376 139.756 162.405 139.769C162.434 139.781 162.459 139.804 162.474 139.834L163.778 142.439C163.787 142.456 163.792 142.474 163.794 142.493C163.795 142.512 163.794 142.532 163.789 142.55C163.783 142.568 163.775 142.585 163.764 142.6C163.752 142.615 163.738 142.627 163.722 142.636C163.707 142.645 163.689 142.651 163.672 142.653C163.654 142.655 163.636 142.653 163.619 142.647C163.602 142.642 163.586 142.633 163.572 142.62C163.558 142.608 163.546 142.593 163.538 142.577L162.234 139.971C162.225 139.955 162.22 139.937 162.218 139.919Z" fill="#0C0C0C"/>
<path opacity="0.2" d="M159.477 141.44C159.474 141.406 159.481 141.371 159.499 141.343C159.517 141.315 159.543 141.294 159.574 141.284C159.604 141.274 159.637 141.276 159.666 141.29C159.696 141.303 159.72 141.328 159.734 141.358L160.323 142.604C160.339 142.638 160.342 142.678 160.331 142.715C160.32 142.752 160.295 142.782 160.263 142.799C160.231 142.817 160.193 142.82 160.159 142.808C160.125 142.796 160.096 142.77 160.08 142.735L159.491 141.489C159.483 141.474 159.479 141.457 159.477 141.44Z" fill="#0C0C0C"/>
<path d="M172.17 93.858C172.17 93.858 168.221 74.0745 163.74 75.722C160.184 77.0289 133.472 100.546 132.661 101.399C130.876 103.277 129.861 105.835 129.841 108.512C129.822 111.189 130.798 113.764 132.555 115.672L153.346 141.087L165.345 129.071L149.567 110.855L172.17 93.858Z" fill="#A171EF"/>
<path d="M161.405 102.426C161.373 102.426 161.342 102.413 161.319 102.39C161.296 102.367 161.281 102.335 161.279 102.301L160.751 94.4796C160.749 94.4619 160.751 94.4442 160.757 94.4273C160.762 94.4105 160.77 94.3949 160.781 94.3814C160.792 94.368 160.805 94.357 160.82 94.349C160.834 94.341 160.851 94.3362 160.867 94.3348C160.884 94.3332 160.901 94.3352 160.916 94.3406C160.932 94.346 160.947 94.3548 160.96 94.3664C160.973 94.378 160.983 94.3922 160.99 94.4081C160.998 94.4241 161.002 94.4415 161.003 94.4593L161.531 102.281C161.532 102.299 161.531 102.316 161.525 102.333C161.52 102.35 161.512 102.366 161.501 102.379C161.49 102.393 161.477 102.404 161.462 102.412C161.447 102.42 161.431 102.424 161.415 102.426L161.405 102.426Z" fill="#0C0C0C"/>
<path d="M214.345 114.353H214.336C214.303 114.352 214.272 114.336 214.249 114.31C214.227 114.284 214.215 114.249 214.216 114.213L215.09 95.4806C215.093 95.4453 215.108 95.4124 215.132 95.3886C215.157 95.3649 215.189 95.352 215.223 95.3527C215.239 95.3535 215.255 95.3578 215.27 95.3654C215.285 95.373 215.299 95.3837 215.31 95.3968C215.321 95.41 215.33 95.4254 215.335 95.4421C215.341 95.4588 215.344 95.4765 215.343 95.4943L214.469 114.226C214.467 114.26 214.454 114.292 214.431 114.315C214.408 114.339 214.377 114.353 214.345 114.353Z" fill="#0C0C0C"/>
<path d="M285.013 300H3.08479C3.0177 300 2.95335 299.971 2.90591 299.921C2.85847 299.87 2.83182 299.801 2.83182 299.73C2.83182 299.658 2.85847 299.589 2.90591 299.539C2.95335 299.488 3.0177 299.459 3.08479 299.459H285.013C285.08 299.459 285.144 299.488 285.192 299.539C285.239 299.589 285.266 299.658 285.266 299.73C285.266 299.801 285.239 299.87 285.192 299.921C285.144 299.971 285.08 300 285.013 300Z" fill="#3F3F3F"/>
<path d="M47.2442 250.426C44.2139 249.474 41.1042 250.542 38.1285 252.715C42.0478 243.217 43.6654 234.639 36.9648 234.253C32.2763 233.982 28.6848 237.434 25.9563 242.341C24.9969 233.713 22.5212 227.278 16.9757 229.412C10.8872 231.754 9.96058 239.781 10.8842 248.18C8.2024 243.89 5.31391 241.498 2.69148 244.014C-5.13458 251.524 14.0751 272.686 14.0751 272.686H18.846L21.5685 275.522C21.0175 276.64 20.7157 277.306 20.7157 277.306L24.1739 284.059C24.1739 284.059 59.8212 254.377 47.2442 250.426Z" fill="#A0D5AB"/>
<path d="M38.6909 299.184H11.6909L7.17148 268.939H43.2103L38.6909 299.184Z" fill="#FF8550"/>
</svg>
