<svg width="276" height="283" viewBox="0 0 276 283" fill="none" xmlns="http://www.w3.org/2000/svg">
<g clip-path="url(#clip0_739_5598)">
<path d="M16.9169 78.5881L94.3819 78.5881C95.8543 78.5881 97.2664 78.0627 98.3075 77.1276C99.3487 76.1924 99.9336 74.9241 99.9336 73.6016L99.9336 22.9497C99.9336 21.6278 99.349 20.3601 98.3083 19.4254C97.2677 18.4906 95.8562 17.9655 94.3845 17.9655L16.9143 17.9655C15.4426 17.9655 14.0312 18.4906 12.9905 19.4254C11.9499 20.3601 11.3652 21.6278 11.3652 22.9497L11.3652 73.6016C11.3652 74.9241 11.9501 76.1924 12.9913 77.1276C14.0324 78.0627 15.4445 78.5881 16.9169 78.5881Z" fill="white"/>
<path d="M100.166 73.6013V22.9493C100.166 21.5722 99.5565 20.2515 98.4723 19.2777C97.3881 18.3039 95.9177 17.7569 94.3845 17.7569H16.9143C15.3811 17.7569 13.9106 18.3039 12.8265 19.2777C11.7423 20.2515 11.1333 21.5722 11.1333 22.9493V73.6013C11.1333 74.2835 11.2829 74.959 11.5735 75.5892C11.8642 76.2195 12.2902 76.7922 12.8272 77.2746C13.3643 77.7569 14.0019 78.1396 14.7036 78.4007C15.4053 78.6617 16.1574 78.7961 16.9169 78.7961H94.3819C95.1414 78.7961 95.8935 78.6617 96.5952 78.4007C97.2969 78.1396 97.9345 77.7569 98.4715 77.2746C99.0086 76.7922 99.4346 76.2195 99.7253 75.5892C100.016 74.959 100.166 74.2835 100.166 73.6013ZM94.3845 18.1735C95.7944 18.1739 97.1465 18.6772 98.1433 19.5728C99.1401 20.4684 99.7001 21.6829 99.7001 22.9493V73.6013C99.7001 74.8685 99.1397 76.0839 98.142 76.9799C97.1444 77.876 95.7913 78.3794 94.3804 78.3794H16.9169C15.506 78.3794 14.1529 77.876 13.1553 76.9799C12.1576 76.0839 11.5972 74.8685 11.5972 73.6013V22.9493C11.5972 21.6827 12.1574 20.468 13.1545 19.5723C14.1517 18.6767 15.5041 18.1735 16.9143 18.1735H94.3845Z" fill="#313A33"/>
<path d="M99.9332 22.9487V27.1691H11.3659V22.9487C11.3659 21.6268 11.9506 20.3591 12.9912 19.4244C14.0319 18.4897 15.4433 17.9646 16.915 17.9646H94.3845C95.1132 17.9646 95.8347 18.0935 96.5079 18.344C97.1812 18.5944 97.7929 18.9616 98.3081 19.4244C98.8234 19.8872 99.2321 20.4367 99.5109 21.0414C99.7897 21.6461 99.9332 22.2942 99.9332 22.9487Z" fill="#313A33"/>
<path d="M69.6861 33.9913H73.8653C73.9146 33.9913 73.9618 33.9737 73.9966 33.9425C74.0314 33.9112 74.0509 33.8688 74.0509 33.8246C74.0509 33.7804 74.0314 33.738 73.9966 33.7068C73.9618 33.6755 73.9146 33.6579 73.8653 33.6579H69.6861C69.6369 33.6579 69.5897 33.6755 69.5549 33.7068C69.5201 33.738 69.5005 33.7804 69.5005 33.8246C69.5005 33.8688 69.5201 33.9112 69.5549 33.9425C69.5897 33.9737 69.6369 33.9913 69.6861 33.9913Z" fill="#313A33"/>
<path d="M76.8793 33.9913H78.4606C78.5098 33.9913 78.557 33.9737 78.5918 33.9425C78.6266 33.9112 78.6462 33.8688 78.6462 33.8246C78.6462 33.7804 78.6266 33.738 78.5918 33.7068C78.557 33.6755 78.5098 33.6579 78.4606 33.6579H76.8793C76.83 33.6579 76.7828 33.6755 76.748 33.7068C76.7132 33.738 76.6937 33.7804 76.6937 33.8246C76.6937 33.8688 76.7132 33.9112 76.748 33.9425C76.7828 33.9737 76.83 33.9913 76.8793 33.9913Z" fill="#F16565"/>
<path d="M76.8793 36.998H78.4606C78.5098 36.998 78.557 36.9805 78.5918 36.9492C78.6266 36.918 78.6462 36.8756 78.6462 36.8314C78.6462 36.7872 78.6266 36.7448 78.5918 36.7135C78.557 36.6822 78.5098 36.6647 78.4606 36.6647H76.8793C76.83 36.6647 76.7828 36.6822 76.748 36.7135C76.7132 36.7448 76.6937 36.7872 76.6937 36.8314C76.6937 36.8756 76.7132 36.918 76.748 36.9492C76.7828 36.9805 76.83 36.998 76.8793 36.998Z" fill="#F16565"/>
<path d="M76.8793 40.0048H78.4606C78.5098 40.0048 78.557 39.9872 78.5918 39.956C78.6266 39.9247 78.6462 39.8823 78.6462 39.8381C78.6462 39.7939 78.6266 39.7515 78.5918 39.7202C78.557 39.689 78.5098 39.6714 78.4606 39.6714H76.8793C76.83 39.6714 76.7828 39.689 76.748 39.7202C76.7132 39.7515 76.6937 39.7939 76.6937 39.8381C76.6937 39.8823 76.7132 39.9247 76.748 39.956C76.7828 39.9872 76.83 40.0048 76.8793 40.0048Z" fill="#F16565"/>
<path d="M76.8793 43.0115H78.4606C78.5098 43.0115 78.557 42.994 78.5918 42.9627C78.6266 42.9314 78.6462 42.8891 78.6462 42.8448C78.6462 42.8006 78.6266 42.7583 78.5918 42.727C78.557 42.6957 78.5098 42.6782 78.4606 42.6782H76.8793C76.83 42.6782 76.7828 42.6957 76.748 42.727C76.7132 42.7583 76.6937 42.8006 76.6937 42.8448C76.6937 42.8891 76.7132 42.9314 76.748 42.9627C76.7828 42.994 76.83 43.0115 76.8793 43.0115Z" fill="#F16565"/>
<path d="M76.8793 46.0183H78.4606C78.5098 46.0183 78.557 46.0007 78.5918 45.9694C78.6266 45.9382 78.6462 45.8958 78.6462 45.8516C78.6462 45.8074 78.6266 45.765 78.5918 45.7337C78.557 45.7025 78.5098 45.6849 78.4606 45.6849H76.8793C76.83 45.6849 76.7828 45.7025 76.748 45.7337C76.7132 45.765 76.6937 45.8074 76.6937 45.8516C76.6937 45.8958 76.7132 45.9382 76.748 45.9694C76.7828 46.0007 76.83 46.0183 76.8793 46.0183Z" fill="#F16565"/>
<path d="M76.8793 49.025H78.4606C78.5098 49.025 78.557 49.0074 78.5918 48.9762C78.6266 48.9449 78.6462 48.9025 78.6462 48.8583C78.6462 48.8141 78.6266 48.7717 78.5918 48.7405C78.557 48.7092 78.5098 48.6917 78.4606 48.6917H76.8793C76.83 48.6917 76.7828 48.7092 76.748 48.7405C76.7132 48.7717 76.6937 48.8141 76.6937 48.8583C76.6937 48.9025 76.7132 48.9449 76.748 48.9762C76.7828 49.0074 76.83 49.025 76.8793 49.025Z" fill="#F16565"/>
<path d="M76.8793 52.0318H78.4606C78.5098 52.0318 78.557 52.0142 78.5918 51.9829C78.6266 51.9517 78.6462 51.9093 78.6462 51.8651C78.6462 51.8209 78.6266 51.7785 78.5918 51.7472C78.557 51.716 78.5098 51.6984 78.4606 51.6984H76.8793C76.83 51.6984 76.7828 51.716 76.748 51.7472C76.7132 51.7785 76.6937 51.8209 76.6937 51.8651C76.6937 51.9093 76.7132 51.9517 76.748 51.9829C76.7828 52.0142 76.83 52.0318 76.8793 52.0318Z" fill="#F16565"/>
<path d="M76.8793 55.0385H78.4606C78.5098 55.0385 78.557 55.0209 78.5918 54.9897C78.6266 54.9584 78.6462 54.916 78.6462 54.8718C78.6462 54.8276 78.6266 54.7852 78.5918 54.754C78.557 54.7227 78.5098 54.7052 78.4606 54.7052H76.8793C76.83 54.7052 76.7828 54.7227 76.748 54.754C76.7132 54.7852 76.6937 54.8276 76.6937 54.8718C76.6937 54.916 76.7132 54.9584 76.748 54.9897C76.7828 55.0209 76.83 55.0385 76.8793 55.0385Z" fill="#F16565"/>
<path d="M76.8793 58.0452H78.4606C78.5098 58.0452 78.557 58.0277 78.5918 57.9964C78.6266 57.9652 78.6462 57.9228 78.6462 57.8786C78.6462 57.8344 78.6266 57.792 78.5918 57.7607C78.557 57.7295 78.5098 57.7119 78.4606 57.7119H76.8793C76.83 57.7119 76.7828 57.7295 76.748 57.7607C76.7132 57.792 76.6937 57.8344 76.6937 57.8786C76.6937 57.9228 76.7132 57.9652 76.748 57.9964C76.7828 58.0277 76.83 58.0452 76.8793 58.0452Z" fill="#F16565"/>
<path d="M76.8793 61.052H78.4606C78.5098 61.052 78.557 61.0344 78.5918 61.0032C78.6266 60.9719 78.6462 60.9295 78.6462 60.8853C78.6462 60.8411 78.6266 60.7987 78.5918 60.7675C78.557 60.7362 78.5098 60.7186 78.4606 60.7186H76.8793C76.83 60.7186 76.7828 60.7362 76.748 60.7675C76.7132 60.7987 76.6937 60.8411 76.6937 60.8853C76.6937 60.9295 76.7132 60.9719 76.748 61.0032C76.7828 61.0344 76.83 61.052 76.8793 61.052Z" fill="#F16565"/>
<path d="M76.8793 64.0587H78.4606C78.5098 64.0587 78.557 64.0412 78.5918 64.0099C78.6266 63.9786 78.6462 63.9362 78.6462 63.892C78.6462 63.8478 78.6266 63.8054 78.5918 63.7742C78.557 63.7429 78.5098 63.7254 78.4606 63.7254H76.8793C76.83 63.7254 76.7828 63.7429 76.748 63.7742C76.7132 63.8054 76.6937 63.8478 76.6937 63.892C76.6937 63.9362 76.7132 63.9786 76.748 64.0099C76.7828 64.0412 76.83 64.0587 76.8793 64.0587Z" fill="#F16565"/>
<path d="M76.8793 67.0655H78.4606C78.5098 67.0655 78.557 67.0479 78.5918 67.0166C78.6266 66.9854 78.6462 66.943 78.6462 66.8988C78.6462 66.8546 78.6266 66.8122 78.5918 66.7809C78.557 66.7497 78.5098 66.7321 78.4606 66.7321H76.8793C76.83 66.7321 76.7828 66.7497 76.748 66.7809C76.7132 66.8122 76.6937 66.8546 76.6937 66.8988C76.6937 66.943 76.7132 66.9854 76.748 67.0166C76.7828 67.0479 76.83 67.0655 76.8793 67.0655Z" fill="#F16565"/>
<path d="M76.8793 70.0722H78.4606C78.5098 70.0722 78.557 70.0546 78.5918 70.0234C78.6266 69.9921 78.6462 69.9497 78.6462 69.9055C78.6462 69.8613 78.6266 69.8189 78.5918 69.7877C78.557 69.7564 78.5098 69.7389 78.4606 69.7389H76.8793C76.83 69.7389 76.7828 69.7564 76.748 69.7877C76.7132 69.8189 76.6937 69.8613 76.6937 69.9055C76.6937 69.9497 76.7132 69.9921 76.748 70.0234C76.7828 70.0546 76.83 70.0722 76.8793 70.0722Z" fill="#F16565"/>
<path d="M76.8793 73.0793H78.4606C78.5098 73.0793 78.557 73.0618 78.5918 73.0305C78.6266 72.9992 78.6462 72.9568 78.6462 72.9126C78.6462 72.8684 78.6266 72.826 78.5918 72.7948C78.557 72.7635 78.5098 72.746 78.4606 72.746H76.8793C76.83 72.746 76.7828 72.7635 76.748 72.7948C76.7132 72.826 76.6937 72.8684 76.6937 72.9126C76.6937 72.9568 76.7132 72.9992 76.748 73.0305C76.7828 73.0618 76.83 73.0793 76.8793 73.0793Z" fill="#F16565"/>
<path d="M66.3459 36.998H70.154C70.2033 36.998 70.2505 36.9805 70.2853 36.9492C70.3201 36.918 70.3396 36.8756 70.3396 36.8314C70.3396 36.7872 70.3201 36.7448 70.2853 36.7135C70.2505 36.6822 70.2033 36.6647 70.154 36.6647H66.3459C66.2967 36.6647 66.2495 36.6822 66.2147 36.7135C66.1799 36.7448 66.1604 36.7872 66.1604 36.8314C66.1604 36.8756 66.1799 36.918 66.2147 36.9492C66.2495 36.9805 66.2967 36.998 66.3459 36.998Z" fill="#313A33"/>
<path d="M69.6861 55.0385H73.8653C73.9146 55.0385 73.9618 55.0209 73.9966 54.9897C74.0314 54.9584 74.0509 54.916 74.0509 54.8718C74.0509 54.8276 74.0314 54.7852 73.9966 54.754C73.9618 54.7227 73.9146 54.7051 73.8653 54.7051H69.6861C69.6369 54.7051 69.5897 54.7227 69.5549 54.754C69.5201 54.7852 69.5005 54.8276 69.5005 54.8718C69.5005 54.916 69.5201 54.9584 69.5549 54.9897C69.5897 55.0209 69.6369 55.0385 69.6861 55.0385Z" fill="#313A33"/>
<path d="M66.3459 58.0452H70.154C70.2033 58.0452 70.2505 58.0277 70.2853 57.9964C70.3201 57.9651 70.3396 57.9228 70.3396 57.8786C70.3396 57.8344 70.3201 57.792 70.2853 57.7607C70.2505 57.7294 70.2033 57.7119 70.154 57.7119H66.3459C66.2967 57.7119 66.2495 57.7294 66.2147 57.7607C66.1799 57.792 66.1604 57.8344 66.1604 57.8786C66.1604 57.9228 66.1799 57.9651 66.2147 57.9964C66.2495 58.0277 66.2967 58.0452 66.3459 58.0452Z" fill="#313A33"/>
<path d="M44.8207 40.0048H67.5563C67.6055 40.0048 67.6527 39.9872 67.6875 39.956C67.7223 39.9247 67.7418 39.8823 67.7418 39.8381C67.7418 39.7939 67.7223 39.7515 67.6875 39.7202C67.6527 39.689 67.6055 39.6714 67.5563 39.6714H44.8207C44.7715 39.6714 44.7243 39.689 44.6896 39.7202C44.6548 39.7515 44.6352 39.7939 44.6352 39.8381C44.6352 39.8823 44.6548 39.9247 44.6896 39.956C44.7243 39.9872 44.7715 40.0048 44.8207 40.0048Z" fill="#313A33"/>
<path d="M24.7478 40.0048H40.8027C40.8519 40.0048 40.8991 39.9872 40.9339 39.956C40.9687 39.9247 40.9882 39.8823 40.9882 39.8381C40.9882 39.7939 40.9687 39.7515 40.9339 39.7202C40.8991 39.689 40.8519 39.6714 40.8027 39.6714H24.7478C24.6986 39.6714 24.6513 39.689 24.6165 39.7202C24.5817 39.7515 24.5622 39.7939 24.5622 39.8381C24.5622 39.8823 24.5817 39.9247 24.6165 39.956C24.6513 39.9872 24.6986 40.0048 24.7478 40.0048Z" fill="#6EA079"/>
<path d="M16.1317 40.0048H21.0528C21.102 40.0048 21.1492 39.9872 21.184 39.956C21.2188 39.9247 21.2383 39.8823 21.2383 39.8381C21.2383 39.7939 21.2188 39.7515 21.184 39.7202C21.1492 39.689 21.102 39.6714 21.0528 39.6714H16.1317C16.0824 39.6714 16.0352 39.689 16.0004 39.7202C15.9656 39.7515 15.9461 39.7939 15.9461 39.8381C15.9461 39.8823 15.9656 39.9247 16.0004 39.956C16.0352 39.9872 16.0824 40.0048 16.1317 40.0048Z" fill="#313A33"/>
<path d="M33.687 46.0182H67.5563C67.6055 46.0182 67.6527 46.0007 67.6875 45.9694C67.7223 45.9382 67.7418 45.8958 67.7418 45.8516C67.7418 45.8074 67.7223 45.765 67.6875 45.7337C67.6527 45.7025 67.6055 45.6849 67.5563 45.6849H33.687C33.6378 45.6849 33.5906 45.7025 33.5558 45.7337C33.521 45.765 33.5014 45.8074 33.5014 45.8516C33.5014 45.8958 33.521 45.9382 33.5558 45.9694C33.5906 46.0007 33.6378 46.0182 33.687 46.0182Z" fill="#313A33"/>
<path d="M24.7477 46.0182H29.6689C29.7181 46.0182 29.7653 46.0007 29.8001 45.9694C29.8349 45.9382 29.8544 45.8958 29.8544 45.8516C29.8544 45.8074 29.8349 45.765 29.8001 45.7337C29.7653 45.7025 29.7181 45.6849 29.6689 45.6849H24.7477C24.6985 45.6849 24.6513 45.7025 24.6165 45.7337C24.5817 45.765 24.5622 45.8074 24.5622 45.8516C24.5622 45.8958 24.5817 45.9382 24.6165 45.9694C24.6513 46.0007 24.6985 46.0182 24.7477 46.0182Z" fill="#F16565"/>
<path d="M63.377 43.0115H67.5563C67.6055 43.0115 67.6527 42.994 67.6875 42.9627C67.7223 42.9314 67.7418 42.8891 67.7418 42.8448C67.7418 42.8006 67.7223 42.7583 67.6875 42.727C67.6527 42.6957 67.6055 42.6782 67.5563 42.6782H63.377C63.3278 42.6782 63.2806 42.6957 63.2458 42.727C63.211 42.7583 63.1915 42.8006 63.1915 42.8448C63.1915 42.8891 63.211 42.9314 63.2458 42.9627C63.2806 42.994 63.3278 43.0115 63.377 43.0115Z" fill="#6EA079"/>
<path d="M35.8816 43.0115H59.359C59.4082 43.0115 59.4554 42.994 59.4902 42.9627C59.525 42.9314 59.5446 42.8891 59.5446 42.8448C59.5446 42.8006 59.525 42.7583 59.4902 42.727C59.4554 42.6957 59.4082 42.6782 59.359 42.6782H35.8816C35.8324 42.6782 35.7852 42.6957 35.7504 42.727C35.7156 42.7583 35.696 42.8006 35.696 42.8448C35.696 42.8891 35.7156 42.9314 35.7504 42.9627C35.7852 42.994 35.8324 43.0115 35.8816 43.0115Z" fill="#F16565"/>
<path d="M16.0994 43.0115H31.4131C31.4623 43.0115 31.5096 42.994 31.5444 42.9627C31.5792 42.9314 31.5987 42.8891 31.5987 42.8448C31.5987 42.8006 31.5792 42.7583 31.5444 42.727C31.5096 42.6957 31.4623 42.6782 31.4131 42.6782H16.1001C16.0509 42.6782 16.0037 42.6957 15.9689 42.727C15.9341 42.7583 15.9146 42.8006 15.9146 42.8448C15.9146 42.8891 15.9341 42.9314 15.9689 42.9627C16.0037 42.994 16.0509 43.0115 16.1001 43.0115H16.0994Z" fill="#313A33"/>
<path d="M44.8207 49.025H67.5563C67.6055 49.025 67.6527 49.0074 67.6875 48.9762C67.7223 48.9449 67.7418 48.9025 67.7418 48.8583C67.7418 48.8141 67.7223 48.7717 67.6875 48.7405C67.6527 48.7092 67.6055 48.6917 67.5563 48.6917H44.8207C44.7715 48.6917 44.7243 48.7092 44.6896 48.7405C44.6548 48.7717 44.6352 48.8141 44.6352 48.8583C44.6352 48.9025 44.6548 48.9449 44.6896 48.9762C44.7243 49.0074 44.7715 49.025 44.8207 49.025Z" fill="#313A33"/>
<path d="M32.1703 49.025H40.8027C40.8519 49.025 40.8991 49.0074 40.9339 48.9762C40.9687 48.9449 40.9882 48.9025 40.9882 48.8583C40.9882 48.8141 40.9687 48.7717 40.9339 48.7405C40.8991 48.7092 40.8519 48.6917 40.8027 48.6917H32.1703C32.1211 48.6917 32.0739 48.7092 32.0391 48.7405C32.0043 48.7717 31.9847 48.8141 31.9847 48.8583C31.9847 48.9025 32.0043 48.9449 32.0391 48.9762C32.0739 49.0074 32.1211 49.025 32.1703 49.025Z" fill="#6EA079"/>
<path d="M16.1318 49.025H28.4754C28.5246 49.025 28.5718 49.0074 28.6066 48.9762C28.6414 48.9449 28.6609 48.9025 28.6609 48.8583C28.6609 48.8141 28.6414 48.7717 28.6066 48.7405C28.5718 48.7092 28.5246 48.6917 28.4754 48.6917H16.1318C16.0825 48.6917 16.0353 48.7092 16.0005 48.7405C15.9657 48.7717 15.9462 48.8141 15.9462 48.8583C15.9462 48.9025 15.9657 48.9449 16.0005 48.9762C16.0353 49.0074 16.0825 49.025 16.1318 49.025Z" fill="#313A33"/>
<path d="M63.377 52.0318H67.5563C67.6055 52.0318 67.6527 52.0142 67.6875 51.9829C67.7223 51.9517 67.7418 51.9093 67.7418 51.8651C67.7418 51.8209 67.7223 51.7785 67.6875 51.7472C67.6527 51.716 67.6055 51.6984 67.5563 51.6984H63.377C63.3278 51.6984 63.2806 51.716 63.2458 51.7472C63.211 51.7785 63.1915 51.8209 63.1915 51.8651C63.1915 51.9093 63.211 51.9517 63.2458 51.9829C63.2806 52.0142 63.3278 52.0318 63.377 52.0318Z" fill="#F16565"/>
<path d="M35.8816 52.0318H59.359C59.4082 52.0318 59.4554 52.0142 59.4902 51.9829C59.525 51.9517 59.5446 51.9093 59.5446 51.8651C59.5446 51.8209 59.525 51.7785 59.4902 51.7472C59.4554 51.716 59.4082 51.6984 59.359 51.6984H35.8816C35.8324 51.6984 35.7852 51.716 35.7504 51.7472C35.7156 51.7785 35.696 51.8209 35.696 51.8651C35.696 51.9093 35.7156 51.9517 35.7504 51.9829C35.7852 52.0142 35.8324 52.0318 35.8816 52.0318Z" fill="#6EA079"/>
<path d="M45.5629 64.0587H68.2984C68.3477 64.0587 68.3949 64.0412 68.4297 64.0099C68.4645 63.9786 68.484 63.9362 68.484 63.892C68.484 63.8478 68.4645 63.8054 68.4297 63.7742C68.3949 63.7429 68.3477 63.7254 68.2984 63.7254H45.5629C45.5137 63.7254 45.4665 63.7429 45.4317 63.7742C45.3969 63.8054 45.3774 63.8478 45.3774 63.892C45.3774 63.9362 45.3969 63.9786 45.4317 64.0099C45.4665 64.0412 45.5137 64.0587 45.5629 64.0587Z" fill="#313A33"/>
<path d="M25.4899 64.0587H41.5448C41.594 64.0587 41.6412 64.0412 41.676 64.0099C41.7108 63.9786 41.7303 63.9362 41.7303 63.892C41.7303 63.8478 41.7108 63.8054 41.676 63.7742C41.6412 63.7429 41.594 63.7254 41.5448 63.7254H25.4899C25.4407 63.7254 25.3935 63.7429 25.3587 63.7742C25.3239 63.8054 25.3043 63.8478 25.3043 63.892C25.3043 63.9362 25.3239 63.9786 25.3587 64.0099C25.3935 64.0412 25.4407 64.0587 25.4899 64.0587Z" fill="#F16565"/>
<path d="M56.6967 61.052H68.2984C68.3477 61.052 68.3949 61.0344 68.4297 61.0032C68.4645 60.9719 68.484 60.9295 68.484 60.8853C68.484 60.8411 68.4645 60.7987 68.4297 60.7674C68.3949 60.7362 68.3477 60.7186 68.2984 60.7186H56.6967C56.6475 60.7186 56.6003 60.7362 56.5655 60.7674C56.5307 60.7987 56.5111 60.8411 56.5111 60.8853C56.5111 60.9295 56.5307 60.9719 56.5655 61.0032C56.6003 61.0344 56.6475 61.052 56.6967 61.052Z" fill="#6EA079"/>
<path d="M36.6237 61.052H52.6786C52.7278 61.052 52.775 61.0344 52.8098 61.0032C52.8446 60.9719 52.8641 60.9295 52.8641 60.8853C52.8641 60.8411 52.8446 60.7987 52.8098 60.7674C52.775 60.7362 52.7278 60.7186 52.6786 60.7186H36.6237C36.5745 60.7186 36.5273 60.7362 36.4925 60.7674C36.4577 60.7987 36.4381 60.8411 36.4381 60.8853C36.4381 60.9295 36.4577 60.9719 36.4925 61.0032C36.5273 61.0344 36.5745 61.052 36.6237 61.052Z" fill="#F16565"/>
<path d="M16.8416 61.052H32.1553C32.2045 61.052 32.2517 61.0344 32.2865 61.0032C32.3213 60.9719 32.3409 60.9295 32.3409 60.8853C32.3409 60.8411 32.3213 60.7987 32.2865 60.7674C32.2517 60.7362 32.2045 60.7186 32.1553 60.7186H16.8423C16.7931 60.7186 16.7459 60.7362 16.7111 60.7674C16.6763 60.7987 16.6568 60.8411 16.6568 60.8853C16.6568 60.9295 16.6763 60.9719 16.7111 61.0032C16.7459 61.0344 16.7931 61.052 16.8423 61.052H16.8416Z" fill="#313A33"/>
<path d="M34.4292 70.0725H68.2984C68.3477 70.0725 68.3949 70.055 68.4297 70.0237C68.4645 69.9925 68.484 69.9501 68.484 69.9059C68.484 69.8617 68.4645 69.8193 68.4297 69.788C68.3949 69.7568 68.3477 69.7392 68.2984 69.7392H34.4292C34.38 69.7392 34.3328 69.7568 34.298 69.788C34.2632 69.8193 34.2436 69.8617 34.2436 69.9059C34.2436 69.9501 34.2632 69.9925 34.298 70.0237C34.3328 70.055 34.38 70.0725 34.4292 70.0725Z" fill="#F16565"/>
<path d="M25.4899 70.0725H30.411C30.4602 70.0725 30.5074 70.055 30.5422 70.0237C30.577 69.9925 30.5966 69.9501 30.5966 69.9059C30.5966 69.8617 30.577 69.8193 30.5422 69.788C30.5074 69.7568 30.4602 69.7392 30.411 69.7392H25.4899C25.4407 69.7392 25.3934 69.7568 25.3586 69.788C25.3238 69.8193 25.3043 69.8617 25.3043 69.9059C25.3043 69.9501 25.3238 69.9925 25.3586 70.0237C25.3934 70.055 25.4407 70.0725 25.4899 70.0725Z" fill="#313A33"/>
<path d="M64.1192 67.0658H68.2984C68.3477 67.0658 68.3949 67.0482 68.4297 67.017C68.4645 66.9857 68.484 66.9433 68.484 66.8991C68.484 66.8549 68.4645 66.8125 68.4297 66.7813C68.3949 66.75 68.3477 66.7325 68.2984 66.7325H64.1192C64.07 66.7325 64.0228 66.75 63.988 66.7813C63.9532 66.8125 63.9336 66.8549 63.9336 66.8991C63.9336 66.9433 63.9532 66.9857 63.988 67.017C64.0228 67.0482 64.07 67.0658 64.1192 67.0658Z" fill="#F16565"/>
<path d="M36.6237 67.0658H60.1011C60.1503 67.0658 60.1975 67.0482 60.2323 67.017C60.2671 66.9857 60.2867 66.9433 60.2867 66.8991C60.2867 66.8549 60.2671 66.8125 60.2323 66.7813C60.1975 66.75 60.1503 66.7325 60.1011 66.7325H36.6237C36.5745 66.7325 36.5273 66.75 36.4925 66.7813C36.4577 66.8125 36.4382 66.8549 36.4382 66.8991C36.4382 66.9433 36.4577 66.9857 36.4925 67.017C36.5273 67.0482 36.5745 67.0658 36.6237 67.0658Z" fill="#313A33"/>
<path d="M16.8416 67.0658H32.1553C32.2045 67.0658 32.2517 67.0482 32.2865 67.017C32.3213 66.9857 32.3409 66.9433 32.3409 66.8991C32.3409 66.8549 32.3213 66.8125 32.2865 66.7813C32.2517 66.75 32.2045 66.7325 32.1553 66.7325H16.8423C16.7931 66.7325 16.7459 66.75 16.7111 66.7813C16.6763 66.8125 16.6568 66.8549 16.6568 66.8991C16.6568 66.9433 16.6763 66.9857 16.7111 67.017C16.7459 67.0482 16.7931 67.0658 16.8423 67.0658H16.8416Z" fill="#6EA079"/>
<path d="M45.5629 73.0793H68.2984C68.3477 73.0793 68.3949 73.0617 68.4297 73.0305C68.4645 72.9992 68.484 72.9568 68.484 72.9126C68.484 72.8684 68.4645 72.826 68.4297 72.7948C68.3949 72.7635 68.3477 72.7459 68.2984 72.7459H45.5629C45.5137 72.7459 45.4665 72.7635 45.4317 72.7948C45.3969 72.826 45.3774 72.8684 45.3774 72.9126C45.3774 72.9568 45.3969 72.9992 45.4317 73.0305C45.4665 73.0617 45.5137 73.0793 45.5629 73.0793Z" fill="#6EA079"/>
<path d="M32.9124 73.0793H41.5448C41.594 73.0793 41.6412 73.0617 41.676 73.0305C41.7108 72.9992 41.7303 72.9568 41.7303 72.9126C41.7303 72.8684 41.7108 72.826 41.676 72.7948C41.6412 72.7635 41.594 72.7459 41.5448 72.7459H32.9124C32.8632 72.7459 32.816 72.7635 32.7812 72.7948C32.7464 72.826 32.7268 72.8684 32.7268 72.9126C32.7268 72.9568 32.7464 72.9992 32.7812 73.0305C32.816 73.0617 32.8632 73.0793 32.9124 73.0793Z" fill="#313A33"/>
<path d="M16.8739 73.0793H29.2175C29.2667 73.0793 29.3139 73.0617 29.3487 73.0305C29.3835 72.9992 29.4031 72.9568 29.4031 72.9126C29.4031 72.8684 29.3835 72.826 29.3487 72.7948C29.3139 72.7635 29.2667 72.7459 29.2175 72.7459H16.8739C16.8247 72.7459 16.7775 72.7635 16.7427 72.7948C16.7079 72.826 16.6883 72.8684 16.6883 72.9126C16.6883 72.9568 16.7079 72.9992 16.7427 73.0305C16.7775 73.0617 16.8247 73.0793 16.8739 73.0793Z" fill="#F16565"/>
<path d="M80.2231 76.2967C80.2723 76.2967 80.3195 76.2791 80.3543 76.2479C80.3891 76.2166 80.4087 76.1742 80.4087 76.13V28.7425C80.4087 28.6983 80.3891 28.6559 80.3543 28.6246C80.3195 28.5934 80.2723 28.5758 80.2231 28.5758C80.1739 28.5758 80.1267 28.5934 80.0919 28.6246C80.0571 28.6559 80.0376 28.6983 80.0376 28.7425V76.13C80.0376 76.1742 80.0571 76.2166 80.0919 76.2479C80.1267 76.2791 80.1739 76.2967 80.2231 76.2967Z" fill="#313A33"/>
<path d="M18.0756 25.5747C16.4313 25.5747 15.0984 24.3775 15.0984 22.9007C15.0984 21.4238 16.4313 20.2266 18.0756 20.2266C19.7198 20.2266 21.0527 21.4238 21.0527 22.9007C21.0527 24.3775 19.7198 25.5747 18.0756 25.5747Z" fill="white"/>
<path d="M88.7104 30.8245H96.746C96.7952 30.8245 96.8424 30.807 96.8772 30.7757C96.912 30.7445 96.9316 30.7021 96.9316 30.6579C96.9316 30.6137 96.912 30.5713 96.8772 30.54C96.8424 30.5088 96.7952 30.4912 96.746 30.4912H88.7104C88.6612 30.4912 88.614 30.5088 88.5792 30.54C88.5444 30.5713 88.5248 30.6137 88.5248 30.6579C88.5248 30.7021 88.5444 30.7445 88.5792 30.7757C88.614 30.807 88.6612 30.8245 88.7104 30.8245Z" fill="#313A33"/>
<path d="M91.1312 34.1119H96.746C96.7952 34.1119 96.8424 34.0944 96.8772 34.0631C96.912 34.0319 96.9316 33.9895 96.9316 33.9453C96.9316 33.9011 96.912 33.8587 96.8772 33.8274C96.8424 33.7962 96.7952 33.7786 96.746 33.7786H91.1312C91.082 33.7786 91.0348 33.7962 91 33.8274C90.9652 33.8587 90.9457 33.9011 90.9457 33.9453C90.9457 33.9895 90.9652 34.0319 91 34.0631C91.0348 34.0944 91.082 34.1119 91.1312 34.1119Z" fill="#313A33"/>
<path d="M86.1934 37.3994H96.746C96.7952 37.3994 96.8424 37.3818 96.8772 37.3505C96.912 37.3193 96.9316 37.2769 96.9316 37.2327C96.9316 37.1885 96.912 37.1461 96.8772 37.1148C96.8424 37.0836 96.7952 37.066 96.746 37.066H86.1934C86.1442 37.066 86.097 37.0836 86.0622 37.1148C86.0274 37.1461 86.0079 37.1885 86.0079 37.2327C86.0079 37.2769 86.0274 37.3193 86.0622 37.3505C86.097 37.3818 86.1442 37.3994 86.1934 37.3994Z" fill="#313A33"/>
<path d="M84.2242 40.6868H93.0347C93.0839 40.6868 93.1311 40.6692 93.1659 40.638C93.2007 40.6067 93.2203 40.5643 93.2203 40.5201C93.2203 40.4759 93.2007 40.4335 93.1659 40.4023C93.1311 40.371 93.0839 40.3534 93.0347 40.3534H84.2242C84.175 40.3534 84.1278 40.371 84.093 40.4023C84.0582 40.4335 84.0386 40.4759 84.0386 40.5201C84.0386 40.5643 84.0582 40.6067 84.093 40.638C84.1278 40.6692 84.175 40.6868 84.2242 40.6868Z" fill="#313A33"/>
<path d="M88.4847 43.9745H93.0347C93.0839 43.9745 93.1311 43.957 93.1659 43.9257C93.2007 43.8945 93.2203 43.8521 93.2203 43.8079C93.2203 43.7637 93.2007 43.7213 93.1659 43.69C93.1311 43.6587 93.0839 43.6412 93.0347 43.6412H88.4847C88.4355 43.6412 88.3883 43.6587 88.3535 43.69C88.3187 43.7213 88.2991 43.7637 88.2991 43.8079C88.2991 43.8521 88.3187 43.8945 88.3535 43.9257C88.3883 43.957 88.4355 43.9745 88.4847 43.9745Z" fill="#313A33"/>
<path d="M84.9991 47.2619H93.0347C93.0839 47.2619 93.1311 47.2444 93.1659 47.2131C93.2007 47.1819 93.2203 47.1395 93.2203 47.0953C93.2203 47.0511 93.2007 47.0087 93.1659 46.9774C93.1311 46.9462 93.0839 46.9286 93.0347 46.9286H84.9991C84.9499 46.9286 84.9027 46.9462 84.8679 46.9774C84.8331 47.0087 84.8135 47.0511 84.8135 47.0953C84.8135 47.1395 84.8331 47.1819 84.8679 47.2131C84.9027 47.2444 84.9499 47.2619 84.9991 47.2619Z" fill="#313A33"/>
<path d="M90.5501 50.5494H96.746C96.7952 50.5494 96.8424 50.5318 96.8772 50.5005C96.912 50.4693 96.9316 50.4269 96.9316 50.3827C96.9316 50.3385 96.912 50.2961 96.8772 50.2648C96.8424 50.2336 96.7952 50.216 96.746 50.216H90.5501C90.5009 50.216 90.4537 50.2336 90.4189 50.2648C90.3841 50.2961 90.3645 50.3385 90.3645 50.3827C90.3645 50.4269 90.3841 50.4693 90.4189 50.5005C90.4537 50.5318 90.5009 50.5494 90.5501 50.5494Z" fill="#313A33"/>
<path d="M92.68 53.8365H96.746C96.7952 53.8365 96.8424 53.8189 96.8772 53.7876C96.912 53.7564 96.9316 53.714 96.9316 53.6698C96.9316 53.6256 96.912 53.5832 96.8772 53.5519C96.8424 53.5207 96.7952 53.5031 96.746 53.5031H92.68C92.6307 53.5031 92.5835 53.5207 92.5487 53.5519C92.5139 53.5832 92.4944 53.6256 92.4944 53.6698C92.4944 53.714 92.5139 53.7564 92.5487 53.7876C92.5835 53.8189 92.6307 53.8365 92.68 53.8365Z" fill="#313A33"/>
<path d="M77.1316 30.1192V30.1792L74.8121 30.9525C74.7789 30.9647 74.7506 30.9855 74.7308 31.0122C74.7109 31.0389 74.7005 31.0704 74.7007 31.1025V31.1592C74.7001 31.1842 74.7066 31.209 74.7196 31.2312C74.7326 31.2533 74.7516 31.2722 74.775 31.2859C74.7985 31.3008 74.8258 31.3101 74.8544 31.313C74.883 31.3159 74.912 31.3123 74.9386 31.3025L77.5584 30.3825C77.5911 30.3708 77.6191 30.3506 77.639 30.3244C77.6588 30.2983 77.6695 30.2675 77.6697 30.2359V30.0659C77.67 30.0341 77.6595 30.0031 77.6396 29.9769C77.6197 29.9507 77.5914 29.9305 77.5584 29.9192L74.9386 28.9958C74.9171 28.9893 74.8945 28.9859 74.8718 28.9858C74.8374 28.9865 74.8039 28.9957 74.775 29.0125C74.7515 29.0269 74.7325 29.0464 74.7195 29.0691C74.7066 29.0918 74.7001 29.117 74.7007 29.1425V29.1992C74.6999 29.231 74.7103 29.2622 74.7302 29.2885C74.7502 29.3148 74.7788 29.3349 74.8121 29.3458L77.1316 30.1192Z" fill="#F16565"/>
<path d="M72.5337 28.3158L73.9218 32.1326C73.9331 32.1644 73.9553 32.1922 73.9853 32.212C74.0153 32.2318 74.0516 32.2425 74.0888 32.2426C74.1157 32.243 74.1423 32.2374 74.1662 32.2263C74.1902 32.2153 74.2107 32.1991 74.2261 32.1792C74.2427 32.1595 74.254 32.1366 74.2591 32.1123C74.2642 32.088 74.2629 32.063 74.2554 32.0392L72.8677 28.2258C72.8559 28.1933 72.8331 28.165 72.8025 28.1447C72.7719 28.1244 72.7351 28.1131 72.697 28.1125C72.6702 28.1124 72.6437 28.1181 72.6198 28.1291C72.5959 28.1401 72.5753 28.1561 72.5597 28.1758C72.5431 28.1955 72.532 28.2185 72.5275 28.2429C72.523 28.2673 72.5251 28.2923 72.5337 28.3158Z" fill="#F16565"/>
<path d="M69.1253 30.0658V30.2359C69.1248 30.2672 69.1348 30.2979 69.154 30.3241C69.1732 30.3502 69.2007 30.3706 69.2329 30.3825L71.8568 31.3025C71.8828 31.3122 71.9111 31.3158 71.939 31.3129C71.9669 31.3099 71.9936 31.3007 72.0164 31.2859C72.0401 31.2723 72.0597 31.2536 72.0733 31.2315C72.087 31.2093 72.0942 31.1845 72.0943 31.1592V31.1025C72.0946 31.07 72.0837 31.0381 72.0631 31.0112C72.0426 30.9844 72.0133 30.9639 71.9793 30.9525L69.6597 30.1792V30.1192L71.9793 29.3458C72.0134 29.3356 72.043 29.3159 72.0637 29.2895C72.0844 29.2631 72.0951 29.2314 72.0943 29.1992V29.1425C72.0942 29.1167 72.087 29.0914 72.0734 29.0687C72.0598 29.0461 72.0402 29.0268 72.0164 29.0125C71.9876 28.9958 71.9542 28.9865 71.9199 28.9858C71.8983 28.9856 71.8769 28.989 71.8568 28.9958L69.2329 29.9192C69.2004 29.9307 69.1726 29.951 69.1534 29.9773C69.1341 30.0035 69.1243 30.0344 69.1253 30.0658Z" fill="#F16565"/>
<path d="M122.077 0H253.154V118.287H122.077V0Z" fill="#C2C2C2"/>
<path d="M253.154 0H254.657V118.287H253.154V0Z" fill="#C2C2C2"/>
<path opacity="0.05" d="M253.154 0H254.657V118.287H253.154V0Z" fill="#313A33"/>
<path opacity="0.05" d="M221.4 81.5097V50.5617H193.308V68.542H149.794V100.378H131.299V118.287H149.794H153.356H246.849V81.5097H221.4Z" fill="#313A33"/>
<path opacity="0.34" d="M196.914 53.922H217.371V57.2831H196.914V53.922Z" fill="white"/>
<path opacity="0.34" d="M196.914 60.8851H217.371V64.2462H196.914V60.8851Z" fill="white"/>
<path opacity="0.34" d="M196.914 67.8482H217.371V71.2093H196.914V67.8482Z" fill="white"/>
<path opacity="0.34" d="M239.451 84.7712H243.222V88.1323H239.451V84.7712Z" fill="white"/>
<path opacity="0.34" d="M239.451 91.7343H243.222V95.0954H239.451V91.7343Z" fill="white"/>
<path opacity="0.34" d="M239.451 98.6977H243.222V102.059H239.451V98.6977Z" fill="white"/>
<path opacity="0.34" d="M232.476 84.7712H236.246V88.1323H232.476V84.7712Z" fill="white"/>
<path opacity="0.34" d="M232.476 91.7343H236.246V95.0954H232.476V91.7343Z" fill="white"/>
<path opacity="0.34" d="M232.476 98.6977H236.246V102.059H232.476V98.6977Z" fill="white"/>
<path opacity="0.34" d="M225.689 84.7712H229.459V88.1323H225.689V84.7712Z" fill="white"/>
<path opacity="0.34" d="M225.689 91.7343H229.459V95.0954H225.689V91.7343Z" fill="white"/>
<path opacity="0.34" d="M225.689 98.6977H229.459V102.059H225.689V98.6977Z" fill="white"/>
<path d="M253.154 58.4802H226.779V0H224.598V58.4802H153.356V0H151.175V58.4802H122.077V60.4485H151.175V118.287H153.356V60.4485H224.598V118.287H226.779V60.4485H253.154V58.4802Z" fill="white"/>
<path d="M116.855 118.145H258.376V122.079H116.855V118.145Z" fill="#C2C2C2"/>
<path opacity="0.1" d="M116.855 118.145H258.376V122.079H116.855V118.145Z" fill="#313A33"/>
<path opacity="0.1" d="M258.376 118.145H260.419V122.079H258.376V118.145Z" fill="#313A33"/>
<path opacity="0.1" d="M258.376 118.145H260.419V122.079H258.376V118.145Z" fill="#313A33"/>
<path d="M254.657 5.03607L122.077 5.03607V2.11064L254.657 2.11064V5.03607Z" fill="white"/>
<path d="M254.657 10.4993L122.077 10.4993V7.57391L254.657 7.57391V10.4993Z" fill="white"/>
<path d="M254.657 15.9623L122.077 15.9623V13.0368L254.657 13.0368V15.9623Z" fill="white"/>
<path d="M254.657 21.4252L122.077 21.4252V18.4998L254.657 18.4998V21.4252Z" fill="white"/>
<path d="M254.657 26.8878L122.077 26.8878V23.9623L254.657 23.9623V26.8878Z" fill="white"/>
<path d="M240.575 30.1866H238.588V1.33514e-05H240.575V30.1866Z" fill="white"/>
<path d="M239.75 34.5218C238.243 34.5218 237.021 33.419 237.021 32.0585C237.021 30.6981 238.243 29.5952 239.75 29.5952C241.258 29.5952 242.48 30.6981 242.48 32.0585C242.48 33.419 241.258 34.5218 239.75 34.5218Z" fill="white"/>
<path d="M254.715 280.78L255.443 280.654L244.064 178.976L243.336 179.102L254.715 280.78Z" fill="#313A33"/>
<path d="M212.347 280.78L213.075 280.654L201.697 178.976L200.969 179.102L212.347 280.78Z" fill="#313A33"/>
<path d="M118.696 280.78L117.968 280.654L129.346 178.976L130.074 179.102L118.696 280.78Z" fill="#313A33"/>
<path d="M161.063 280.78L160.335 280.654L171.713 178.976L172.441 179.102L161.063 280.78Z" fill="#313A33"/>
<path d="M176.153 134.228L176.887 134.316L170.24 179.084L169.506 178.996L176.153 134.228Z" fill="#313A33"/>
<path d="M252.447 134.227L253.182 134.315L246.535 179.084L245.8 178.996L252.447 134.227Z" fill="#313A33"/>
<path d="M169.57 175.761H244.195C246.208 175.761 247.84 177.229 247.84 179.039V179.04C247.84 180.85 246.208 182.318 244.195 182.318H169.57C167.556 182.318 165.924 180.85 165.924 179.04V179.039C165.924 177.229 167.556 175.761 169.57 175.761Z" fill="#313A33"/>
<path opacity="0.8" d="M169.57 175.761H244.195C246.208 175.761 247.84 177.229 247.84 179.039V179.04C247.84 180.85 246.208 182.318 244.195 182.318H169.57C167.556 182.318 165.924 180.85 165.924 179.04V179.039C165.924 177.229 167.556 175.761 169.57 175.761Z" fill="white"/>
<path d="M169.57 182.651H244.194C244.722 182.651 245.244 182.558 245.731 182.376C246.219 182.195 246.661 181.929 247.034 181.593C247.407 181.258 247.703 180.86 247.905 180.421C248.107 179.983 248.211 179.514 248.211 179.039C248.211 178.565 248.107 178.095 247.905 177.657C247.703 177.219 247.407 176.821 247.034 176.485C246.661 176.15 246.219 175.884 245.731 175.703C245.244 175.521 244.722 175.428 244.194 175.428H169.57C169.042 175.428 168.52 175.521 168.033 175.703C167.546 175.884 167.103 176.15 166.73 176.485C166.357 176.821 166.061 177.219 165.859 177.657C165.657 178.095 165.554 178.565 165.554 179.039C165.554 179.514 165.657 179.983 165.859 180.421C166.061 180.86 166.357 181.258 166.73 181.593C167.103 181.929 167.546 182.195 168.033 182.376C168.52 182.558 169.042 182.651 169.57 182.651ZM244.194 176.094C244.624 176.094 245.05 176.17 245.448 176.319C245.845 176.467 246.206 176.683 246.51 176.957C246.814 177.23 247.055 177.555 247.22 177.912C247.385 178.27 247.469 178.653 247.469 179.039C247.469 179.426 247.385 179.809 247.22 180.166C247.055 180.524 246.814 180.848 246.51 181.122C246.206 181.395 245.845 181.612 245.448 181.76C245.05 181.908 244.624 181.984 244.194 181.984H169.57C169.14 181.984 168.714 181.908 168.317 181.76C167.919 181.612 167.558 181.395 167.254 181.122C166.95 180.848 166.709 180.524 166.544 180.166C166.38 179.809 166.295 179.426 166.295 179.039C166.295 178.653 166.38 178.27 166.544 177.912C166.709 177.555 166.95 177.23 167.254 176.957C167.558 176.683 167.919 176.467 168.317 176.319C168.714 176.17 169.14 176.094 169.57 176.094H244.194Z" fill="#313A33"/>
<path d="M128.611 175.761H203.236C205.25 175.761 206.882 177.229 206.882 179.039V179.04C206.882 180.85 205.25 182.318 203.236 182.318H128.611C126.598 182.318 124.966 180.85 124.966 179.04V179.039C124.966 177.229 126.598 175.761 128.611 175.761Z" fill="white"/>
<path d="M128.611 182.651H203.236C203.764 182.651 204.286 182.558 204.773 182.376C205.261 182.195 205.703 181.929 206.076 181.593C206.449 181.258 206.745 180.86 206.947 180.421C207.149 179.983 207.253 179.514 207.253 179.039C207.253 178.565 207.149 178.095 206.947 177.657C206.745 177.219 206.449 176.821 206.076 176.485C205.703 176.15 205.261 175.884 204.773 175.703C204.286 175.521 203.764 175.428 203.236 175.428H128.611C128.084 175.428 127.562 175.521 127.074 175.703C126.587 175.884 126.144 176.15 125.771 176.485C125.398 176.821 125.103 177.219 124.901 177.657C124.699 178.095 124.595 178.565 124.595 179.039C124.595 179.514 124.699 179.983 124.901 180.421C125.103 180.86 125.398 181.258 125.771 181.593C126.144 181.929 126.587 182.195 127.074 182.376C127.562 182.558 128.084 182.651 128.611 182.651ZM203.236 176.094C203.666 176.094 204.092 176.17 204.49 176.319C204.887 176.467 205.248 176.683 205.552 176.957C205.856 177.23 206.097 177.555 206.262 177.912C206.427 178.27 206.511 178.653 206.511 179.039C206.511 179.426 206.427 179.809 206.262 180.166C206.097 180.524 205.856 180.848 205.552 181.122C205.248 181.395 204.887 181.612 204.49 181.76C204.092 181.908 203.666 181.984 203.236 181.984H128.611C128.181 181.984 127.755 181.908 127.358 181.76C126.961 181.612 126.6 181.395 126.296 181.122C125.991 180.848 125.75 180.524 125.586 180.166C125.421 179.809 125.336 179.426 125.336 179.039C125.336 178.653 125.421 178.27 125.586 177.912C125.75 177.555 125.991 177.23 126.296 176.957C126.6 176.683 126.961 176.467 127.358 176.319C127.755 176.17 128.181 176.094 128.611 176.094H203.236Z" fill="#313A33"/>
<path d="M180.241 134.271H252.615C253.798 134.271 254.941 133.884 255.83 133.181C256.719 132.479 257.294 131.51 257.447 130.455L262.234 97.3948C262.323 96.7768 262.265 96.1487 262.063 95.5525C261.861 94.9563 261.52 94.4057 261.063 93.9374C260.605 93.4692 260.042 93.0941 259.411 92.8371C258.779 92.5802 258.094 92.4473 257.401 92.4474H185.028C183.845 92.4474 182.702 92.8346 181.813 93.5367C180.924 94.2389 180.349 95.208 180.196 96.2631L175.41 129.323C175.32 129.941 175.378 130.569 175.58 131.166C175.782 131.762 176.123 132.312 176.58 132.781C177.037 133.249 177.6 133.624 178.232 133.881C178.863 134.138 179.548 134.271 180.241 134.271Z" fill="#313A33"/>
<path opacity="0.8" d="M180.241 134.271H252.615C253.798 134.271 254.941 133.884 255.83 133.181C256.719 132.479 257.294 131.51 257.447 130.455L262.234 97.3948C262.323 96.7768 262.265 96.1487 262.063 95.5525C261.861 94.9563 261.52 94.4057 261.063 93.9374C260.605 93.4692 260.042 93.0941 259.411 92.8371C258.779 92.5802 258.094 92.4473 257.401 92.4474H185.028C183.845 92.4474 182.702 92.8346 181.813 93.5367C180.924 94.2389 180.349 95.208 180.196 96.2631L175.41 129.323C175.32 129.941 175.378 130.569 175.58 131.166C175.782 131.762 176.123 132.312 176.58 132.781C177.037 133.249 177.6 133.624 178.232 133.881C178.863 134.138 179.548 134.271 180.241 134.271Z" fill="white"/>
<path d="M180.241 134.604H252.615C253.887 134.602 255.116 134.184 256.072 133.429C257.028 132.674 257.647 131.632 257.814 130.498L262.601 97.4378C262.698 96.7727 262.635 96.0969 262.418 95.4553C262.201 94.8137 261.834 94.2211 261.342 93.7172C260.849 93.2133 260.243 92.8096 259.564 92.5331C258.884 92.2566 258.147 92.1136 257.401 92.1137H185.028C183.756 92.1163 182.527 92.5339 181.571 93.289C180.615 94.0442 179.996 95.0857 179.829 96.2201L175.042 129.28C174.945 129.945 175.008 130.621 175.225 131.263C175.442 131.904 175.809 132.497 176.301 133.001C176.793 133.504 177.399 133.908 178.079 134.185C178.758 134.461 179.495 134.604 180.241 134.604ZM257.401 92.7804C258.042 92.7804 258.674 92.9033 259.258 93.1407C259.841 93.3782 260.361 93.7248 260.784 94.1574C261.206 94.59 261.521 95.0987 261.708 95.6495C261.894 96.2003 261.948 96.7805 261.865 97.3515L257.078 130.412C256.935 131.386 256.403 132.28 255.582 132.928C254.761 133.577 253.707 133.935 252.614 133.938H180.241C179.601 133.937 178.968 133.814 178.385 133.577C177.802 133.339 177.282 132.993 176.859 132.56C176.437 132.128 176.122 131.619 175.935 131.068C175.749 130.517 175.695 129.937 175.778 129.366L180.564 96.3065C180.708 95.3324 181.239 94.4383 182.06 93.7899C182.881 93.1415 183.936 92.783 185.028 92.7807L257.401 92.7804Z" fill="#313A33"/>
<path d="M176.149 134.271H248.522C249.706 134.271 250.848 133.884 251.738 133.181C252.627 132.479 253.201 131.51 253.354 130.455L258.143 97.3948C258.232 96.7768 258.174 96.1488 257.972 95.5527C257.77 94.9565 257.429 94.4059 256.972 93.9377C256.515 93.4695 255.952 93.0943 255.32 92.8373C254.689 92.5803 254.004 92.4474 253.311 92.4474H180.936C179.752 92.4474 178.61 92.8346 177.72 93.5368C176.831 94.2389 176.257 95.208 176.104 96.2631L171.317 129.323C171.227 129.941 171.286 130.569 171.487 131.166C171.689 131.762 172.03 132.312 172.488 132.781C172.945 133.249 173.508 133.624 174.139 133.881C174.771 134.138 175.456 134.271 176.149 134.271Z" fill="white"/>
<path d="M176.149 134.604H248.522C249.795 134.602 251.023 134.184 251.979 133.429C252.935 132.674 253.554 131.632 253.722 130.498L258.509 97.4378C258.605 96.7728 258.543 96.097 258.325 95.4554C258.108 94.8139 257.741 94.2214 257.249 93.7176C256.757 93.2137 256.151 92.81 255.472 92.5334C254.792 92.2568 254.055 92.1138 253.309 92.1137H180.936C179.663 92.1163 178.435 92.5339 177.479 93.2891C176.523 94.0442 175.904 95.0857 175.736 96.2201L170.949 129.28C170.853 129.945 170.916 130.621 171.133 131.263C171.35 131.904 171.717 132.497 172.209 133C172.701 133.504 173.307 133.908 173.986 134.185C174.666 134.461 175.403 134.604 176.149 134.604ZM253.309 92.7804C253.95 92.7807 254.582 92.9037 255.165 93.1413C255.748 93.3788 256.269 93.7255 256.691 94.1581C257.113 94.5907 257.428 95.0994 257.614 95.6501C257.801 96.2008 257.855 96.7809 257.772 97.3518L252.987 130.412C252.843 131.386 252.311 132.28 251.49 132.928C250.67 133.577 249.615 133.935 248.522 133.938H176.149C175.508 133.938 174.875 133.815 174.292 133.577C173.709 133.34 173.189 132.993 172.766 132.561C172.344 132.128 172.029 131.619 171.842 131.068C171.656 130.518 171.602 129.937 171.685 129.366L176.472 96.3065C176.615 95.3324 177.147 94.4382 177.968 93.7898C178.789 93.1414 179.843 92.7829 180.936 92.7807L253.309 92.7804Z" fill="#313A33"/>
<path d="M119.417 142.096L120.154 142.163L104.537 281.859L103.799 281.792L119.417 142.096Z" fill="#313A33"/>
<path d="M184.049 41.3642C184.049 41.3642 179.329 38.1203 178.16 30.6533C177.254 24.8721 183.111 28.6175 183.111 28.6175C183.111 28.6175 182.503 24.4488 185.839 24.8625C189.175 25.2762 191.041 29.6553 191.041 29.6553" fill="#313A33"/>
<path d="M203.078 25.3504C203.078 25.3504 219.628 26.9672 213.645 47.3865L212.18 47.476L209.207 47.6575" fill="#313A33"/>
<path d="M186.821 68.7128C186.893 68.7042 187.701 80.9026 203.265 79.8403C214.04 79.1053 217.882 68.6956 218.129 68.6956C216.967 68.471 215.532 68.1295 214.961 68.0125C213.717 67.7497 212.591 67.1483 211.732 66.2884C210.874 65.4286 210.322 64.3509 210.153 63.1989C209.837 61.4698 210.371 52.6229 210.208 50.8732L193.668 54.2347C193.899 57.9301 195.517 66.4964 189.848 68.0125C188.904 68.2633 187.888 68.4938 186.821 68.7128Z" fill="#F8D3C5"/>
<path opacity="0.52" d="M193.435 64.5116C193.694 63.7513 193.861 62.9674 193.933 62.174C194.115 60.3636 194.078 58.5405 193.824 56.7373C197.186 56.3242 200.353 55.0608 202.965 53.0906C203.272 54.1234 204.961 58.6363 204.493 59.6178C203.611 61.4734 199.458 64.5116 193.435 64.5116Z" fill="#313A33"/>
<path d="M196.849 62.0972C203.374 61.5642 211.184 57.8102 211.297 49.7447L211.398 42.4672C211.511 34.402 206.95 27.8099 198.61 27.7132C190.271 27.6168 183.946 34.0827 183.834 42.1482L183.789 45.3699C183.794 46.4764 183.883 47.5812 184.054 48.6767C184.482 51.5751 185.145 55.9817 187.305 58.9626C189.345 61.7768 192.681 62.4373 196.849 62.0972Z" fill="#F8D3C5"/>
<path d="M193.822 54.7256C192.475 54.7812 191.133 54.5478 189.904 54.0442C189.879 54.0344 189.856 54.02 189.836 54.0021C189.817 53.9841 189.802 53.9628 189.791 53.9395C189.781 53.9161 189.776 53.8911 189.776 53.866C189.776 53.8408 189.782 53.816 189.793 53.7928C189.804 53.7697 189.82 53.7487 189.839 53.7311C189.859 53.7135 189.882 53.6996 189.908 53.6902C189.934 53.6809 189.961 53.6762 189.989 53.6764C190.016 53.6767 190.044 53.6819 190.069 53.6918C192.717 54.7203 195.122 54.5696 197.023 53.2562C197.062 53.2285 197.102 53.2027 197.143 53.179C197.191 53.1589 197.245 53.1557 197.295 53.1703C197.346 53.1848 197.388 53.2159 197.414 53.2574C197.44 53.299 197.449 53.348 197.437 53.3948C197.426 53.4416 197.395 53.4828 197.352 53.5103C197.337 53.5189 197.313 53.5364 197.279 53.5606C196.28 54.2537 195.076 54.6593 193.822 54.7256Z" fill="#313A33"/>
<path d="M193.885 56.5418C193.641 56.5555 193.397 56.5502 193.155 56.5259C193.099 56.5206 193.049 56.4954 193.014 56.4559C192.978 56.4163 192.962 56.3658 192.968 56.3153C192.974 56.2647 193.002 56.2184 193.045 56.1865C193.088 56.1546 193.144 56.1396 193.199 56.145C194.657 56.2861 195.352 55.6779 195.382 55.6518C195.421 55.6158 195.475 55.5956 195.531 55.5955C195.586 55.5954 195.64 55.6156 195.68 55.6514C195.719 55.6873 195.741 55.736 195.741 55.7868C195.741 55.8377 195.719 55.8864 195.68 55.9224C195.178 56.3115 194.544 56.5304 193.885 56.5418Z" fill="#313A33"/>
<path d="M186.588 46.9208C186.02 46.9208 185.56 46.502 185.56 45.9854C185.56 45.4687 186.02 45.0499 186.588 45.0499C187.155 45.0499 187.615 45.4687 187.615 45.9854C187.615 46.502 187.155 46.9208 186.588 46.9208Z" fill="#313A33"/>
<path d="M196.624 46.3474C196.056 46.3474 195.596 45.9286 195.596 45.412C195.596 44.8954 196.056 44.4765 196.624 44.4765C197.191 44.4765 197.651 44.8954 197.651 45.412C197.651 45.9286 197.191 46.3474 196.624 46.3474Z" fill="#313A33"/>
<path d="M210.744 52.1959C213.279 52.2254 215.368 49.7801 215.401 47.4723C215.434 45.1645 213.396 43.868 210.862 43.8389L209.535 45.3699L208.566 52.1707L210.744 52.1959Z" fill="#F8D3C5"/>
<path d="M208.225 48.4876C208.225 48.4876 207.369 37.0752 203.568 36.3703C201.037 35.901 194.899 39.1704 189.214 38.1829C186.727 37.7523 184.365 38.3114 184.125 39.3814C184.03 39.805 182.481 33.7171 186.376 29.0982C189.477 25.4197 199.625 24.3812 204.242 25.587C217.026 28.9266 211.385 44.3411 211.385 44.3411L210.815 48.2756L208.225 48.4876Z" fill="#313A33"/>
<path d="M192.291 52.0316H192.275C191.458 52.024 190.089 51.9286 190.095 51.3721C190.1 50.911 191.541 45.948 191.706 45.3835C191.721 45.3367 191.756 45.2972 191.804 45.2733C191.851 45.2495 191.906 45.2432 191.958 45.2558C192.01 45.2684 192.055 45.2988 192.083 45.3407C192.11 45.3826 192.119 45.4328 192.108 45.4806C191.468 47.6787 190.515 51.0627 190.511 51.3767C190.59 51.5092 191.433 51.6457 192.279 51.6537C192.332 51.6547 192.383 51.6743 192.421 51.7086C192.459 51.7428 192.481 51.7889 192.483 51.8375C192.484 51.886 192.465 51.9333 192.43 51.9695C192.394 52.0057 192.345 52.028 192.291 52.0319V52.0316Z" fill="#313A33"/>
<path d="M189.503 40.9127C188.645 40.6976 187.739 40.6976 186.881 40.9127C186.459 41.0159 186.057 41.1762 185.687 41.3884C185.322 41.596 184.988 41.8449 184.691 42.129C184.634 42.1792 184.601 42.2475 184.599 42.3196C184.597 42.3916 184.626 42.4615 184.68 42.5143C184.733 42.5672 184.808 42.5987 184.887 42.6022C184.966 42.6058 185.043 42.5809 185.102 42.5331L185.121 42.5186C185.396 42.2871 185.701 42.088 186.03 41.926C186.353 41.7649 186.701 41.6492 187.062 41.5828C187.773 41.4471 188.511 41.4847 189.2 41.6918L189.229 41.7011C189.343 41.7377 189.468 41.7317 189.577 41.6843C189.686 41.6369 189.77 41.5521 189.81 41.4485C189.85 41.3449 189.844 41.2309 189.792 41.1318C189.74 41.0326 189.647 40.9563 189.533 40.9196L189.503 40.9127Z" fill="#313A33"/>
<path d="M195.581 41.3827C196.234 41.0937 196.96 40.967 197.684 41.0154C198.051 41.0371 198.413 41.1095 198.757 41.23C199.107 41.3508 199.438 41.5111 199.744 41.707L199.763 41.7189C199.829 41.7572 199.908 41.771 199.985 41.7575C200.061 41.7439 200.129 41.704 200.174 41.6461C200.219 41.5882 200.238 41.5167 200.227 41.4465C200.215 41.3763 200.175 41.3128 200.113 41.2691C199.778 41.0234 199.409 40.8173 199.017 40.6556C198.62 40.4905 198.198 40.3804 197.765 40.329C196.883 40.2195 195.985 40.3291 195.165 40.6464C195.054 40.6903 194.967 40.7725 194.923 40.875C194.878 40.9775 194.88 41.0919 194.929 41.1929C194.977 41.2939 195.067 41.3734 195.18 41.4138C195.292 41.4541 195.418 41.4521 195.529 41.4082L195.554 41.3973L195.581 41.3827Z" fill="#313A33"/>
<path d="M190.725 33.0569C188.849 32.7 187.796 30.3725 188.373 27.8583C188.95 25.3441 190.938 23.5952 192.814 23.9521C194.69 24.309 195.743 26.6365 195.166 29.1507C194.589 31.6649 192.601 33.4138 190.725 33.0569Z" fill="#313A33"/>
<path d="M83.6862 264.611C83.6862 264.611 81.6998 273.914 72.0597 274.433C62.4196 274.951 64.5097 281.89 64.5097 281.89H101.35V265.26L83.6862 264.611Z" fill="#313A33"/>
<path d="M153.773 258.737C153.773 258.737 156.535 267.877 148.138 272.187C139.741 276.497 145.007 281.89 145.007 281.89L178.064 267.196L169.939 252.273L153.773 258.737Z" fill="#313A33"/>
<path d="M174.247 256.156L146.37 176.696H196.901C207.052 176.696 211.283 168.919 211.283 159.748C211.283 150.577 201.304 142.538 191.155 142.538H122.957C116.766 142.538 109.824 145.959 106.426 150.635C103.028 155.311 103.947 162.557 106.409 167.689L151.049 265.651" fill="#6EA079"/>
<path opacity="0.8" d="M174.247 256.156L146.37 176.696H196.901C207.052 176.696 211.283 168.919 211.283 159.748C211.283 150.577 201.304 142.538 191.155 142.538H122.957C116.766 142.538 109.824 145.959 106.426 150.635C103.028 155.311 103.947 162.557 106.409 167.689L151.049 265.651" fill="#6EA079"/>
<path d="M103.468 273.251L150.08 176.696L211.284 176.692C225.625 175.676 232.193 168.575 231.984 159.407C231.778 150.354 226.705 141.413 216.731 141.413H134.24C126.86 141.549 121.054 148.918 118.316 155.111L79.5663 267.34" fill="#6EA079"/>
<path d="M236.158 141.523C236.158 141.523 238.876 157.539 234.568 166.442C229.189 177.559 209.026 176.692 209.026 176.692L210.162 141.413L236.158 141.523Z" fill="#6EA079"/>
<path d="M116.563 140.8L159.795 132.706C161.597 132.369 163.275 131.626 164.675 130.548C166.075 129.469 167.151 128.089 167.803 126.534L184.807 86.0487C185.325 84.8336 185.572 83.5381 185.534 82.2366C185.496 80.9351 185.174 79.6531 184.586 78.4644C183.998 77.2757 183.156 76.2037 182.108 75.31C181.06 74.4162 179.827 73.7183 178.48 73.2563C177.133 72.7944 175.698 72.5775 174.257 72.6181C172.817 72.6587 171.4 72.956 170.087 73.493C168.774 74.0299 167.592 74.7959 166.608 75.747C165.624 76.698 164.857 77.8154 164.352 79.0349L149.478 114.449L112.122 121.442C112.122 121.442 115.813 140.94 116.563 140.8Z" fill="#FF7C7C"/>
<path d="M166.566 96.3297C167.065 101.629 170.604 134.692 171.086 141.22H236.129C236.503 135.333 237.716 110.336 239.134 98.8237C240.486 87.8374 240.977 81.5681 239.419 78.1543C236.671 72.1326 229.794 69.9659 223.871 69.2413C220.254 68.7991 214.814 68.4818 214.814 68.4818C214.814 68.4818 214.353 76.9011 203.369 77.3697C188.418 78.0056 189.416 68.4818 189.342 68.4818C186.92 68.4818 173.735 70.0734 170.439 72.0148C165.782 74.7572 164.406 78.494 164.352 81.9272C164.289 85.8807 166 90.3194 166.566 96.3297Z" fill="#FF7C7C"/>
<path d="M169.122 123.346H169.138C169.162 123.344 169.186 123.338 169.207 123.328C169.229 123.318 169.248 123.304 169.264 123.287C169.279 123.27 169.291 123.251 169.299 123.23C169.306 123.209 169.309 123.187 169.307 123.165L167.618 104.838C167.617 104.816 167.611 104.794 167.6 104.774C167.589 104.754 167.574 104.737 167.555 104.722C167.536 104.708 167.515 104.697 167.491 104.691C167.468 104.684 167.443 104.682 167.419 104.685C167.394 104.687 167.371 104.693 167.349 104.703C167.328 104.713 167.308 104.727 167.293 104.743C167.277 104.76 167.265 104.78 167.258 104.801C167.25 104.822 167.247 104.844 167.249 104.865L168.938 123.193C168.942 123.235 168.963 123.273 168.997 123.302C169.031 123.33 169.076 123.346 169.122 123.346Z" fill="#313A33"/>
<path d="M139.076 134.178L124.835 94.5116C124.585 93.8146 124.097 93.2072 123.443 92.7764C122.788 92.3457 122 92.1137 121.191 92.1137H59.4768C58.872 92.1137 58.2758 92.2434 57.7369 92.4922C57.1981 92.741 56.7318 93.1019 56.3764 93.5453C56.021 93.9887 55.7865 94.5021 55.6921 95.0434C55.5977 95.5847 55.646 96.1386 55.8331 96.6597L73.7702 136.328C74.0205 137.025 74.5078 137.632 75.1623 138.063C75.8168 138.493 76.605 138.725 77.4139 138.725H135.432C136.037 138.726 136.633 138.596 137.172 138.347C137.711 138.098 138.178 137.737 138.533 137.293C138.888 136.85 139.123 136.336 139.217 135.795C139.312 135.253 139.263 134.699 139.076 134.178Z" fill="#313A33"/>
<path d="M139.076 134.178L124.835 94.5116C124.585 93.8146 124.097 93.2072 123.443 92.7764C122.788 92.3457 122 92.1137 121.191 92.1137H59.4768C58.872 92.1137 58.2758 92.2434 57.7369 92.4922C57.1981 92.741 56.7318 93.1019 56.3764 93.5453C56.021 93.9887 55.7865 94.5021 55.6921 95.0434C55.5977 95.5847 55.646 96.1386 55.8331 96.6597L73.7702 136.328C74.0205 137.025 74.5078 137.632 75.1623 138.063C75.8168 138.493 76.605 138.725 77.4139 138.725H135.432C136.037 138.726 136.633 138.596 137.172 138.347C137.711 138.098 138.178 137.737 138.533 137.293C138.888 136.85 139.123 136.336 139.217 135.795C139.312 135.253 139.263 134.699 139.076 134.178Z" fill="#313A33"/>
<path d="M127.459 135.508H166.296C167.264 135.508 168.048 136.218 168.048 137.095V137.136C168.048 138.013 167.264 138.724 166.296 138.724H127.459C126.491 138.724 125.707 138.013 125.707 137.136V137.095C125.707 136.218 126.491 135.508 127.459 135.508Z" fill="#313A33"/>
<path d="M127.459 135.508H166.296C167.264 135.508 168.048 136.218 168.048 137.095V137.136C168.048 138.013 167.264 138.724 166.296 138.724H127.459C126.491 138.724 125.707 138.013 125.707 137.136V137.095C125.707 136.218 126.491 135.508 127.459 135.508Z" fill="#313A33"/>
<path d="M99.3026 122.868C95.942 122.868 93.2178 120.399 93.2178 117.354C93.2178 114.309 95.942 111.84 99.3026 111.84C102.663 111.84 105.388 114.309 105.388 117.354C105.388 120.399 102.663 122.868 99.3026 122.868Z" fill="white"/>
<path d="M141.398 125.06L151.112 121.983L149.717 121.896C149.268 121.86 148.85 121.671 148.549 121.368C148.248 121.064 148.085 120.668 148.095 120.26C148.108 120.05 148.168 119.844 148.272 119.656C148.375 119.467 148.521 119.3 148.698 119.164C148.876 119.028 149.083 118.926 149.306 118.864C149.528 118.802 149.763 118.782 149.995 118.805L167.181 120.455L166.736 125.446C166.597 126.995 165.949 128.472 164.876 129.687C163.802 130.903 162.351 131.8 160.709 132.265L153.266 134.36C152.882 134.476 152.465 134.468 152.086 134.338C151.708 134.207 151.39 133.963 151.188 133.646C151.012 133.356 150.944 133.023 150.992 132.695C151.041 132.368 151.204 132.063 151.458 131.825C151.441 131.814 151.427 131.801 151.417 131.785C151.407 131.769 151.4 131.752 151.397 131.734C151.394 131.716 151.395 131.698 151.401 131.68C151.406 131.663 151.415 131.646 151.428 131.632L150.057 132.02C149.629 132.15 149.163 132.129 148.752 131.96C148.341 131.791 148.017 131.487 147.845 131.11C147.704 130.768 147.701 130.393 147.836 130.049C147.972 129.705 148.237 129.416 148.586 129.232C148.57 129.224 148.555 129.214 148.543 129.201L147.98 129.361C147.595 129.476 147.178 129.469 146.8 129.338C146.421 129.208 146.104 128.964 145.902 128.646C145.689 128.295 145.634 127.882 145.75 127.496C145.866 127.109 146.144 126.777 146.524 126.571C146.521 126.561 146.519 126.55 146.519 126.54L142.473 127.821C142.272 127.886 142.059 127.916 141.845 127.906C141.631 127.897 141.422 127.85 141.229 127.767C141.036 127.684 140.862 127.567 140.719 127.423C140.576 127.28 140.466 127.112 140.396 126.929C140.325 126.747 140.295 126.554 140.307 126.361C140.32 126.168 140.374 125.979 140.468 125.805C140.562 125.632 140.693 125.477 140.853 125.349C141.014 125.221 141.201 125.123 141.403 125.061L141.398 125.06Z" fill="#F8D3C5"/>
<path opacity="0.2" d="M146.672 126.681C146.691 126.681 146.71 126.678 146.727 126.673L150.64 125.387C150.68 125.374 150.713 125.346 150.731 125.311C150.749 125.276 150.751 125.236 150.736 125.2C150.721 125.163 150.691 125.134 150.653 125.118C150.614 125.101 150.569 125.1 150.529 125.113L146.616 126.399C146.58 126.41 146.55 126.433 146.531 126.463C146.512 126.492 146.506 126.527 146.512 126.561C146.519 126.595 146.538 126.625 146.567 126.647C146.596 126.669 146.633 126.681 146.671 126.681H146.672Z" fill="#313A33"/>
<path opacity="0.2" d="M148.651 129.252C148.669 129.252 148.688 129.249 148.705 129.243L151.789 128.255C151.809 128.248 151.828 128.239 151.844 128.226C151.861 128.213 151.874 128.198 151.883 128.18C151.893 128.163 151.898 128.144 151.9 128.125C151.901 128.105 151.898 128.086 151.891 128.068C151.884 128.049 151.872 128.033 151.858 128.018C151.843 128.004 151.826 127.992 151.807 127.984C151.787 127.976 151.766 127.971 151.744 127.971C151.723 127.97 151.702 127.973 151.682 127.98L148.597 128.969C148.561 128.98 148.531 129.003 148.512 129.032C148.493 129.062 148.486 129.097 148.492 129.131C148.499 129.165 148.518 129.195 148.547 129.217C148.576 129.239 148.613 129.252 148.651 129.252Z" fill="#313A33"/>
<path opacity="0.2" d="M151.555 131.86C151.575 131.86 151.594 131.857 151.613 131.85L153.058 131.353C153.098 131.339 153.13 131.311 153.147 131.276C153.165 131.241 153.166 131.201 153.151 131.165C153.135 131.129 153.105 131.099 153.066 131.084C153.027 131.068 152.982 131.067 152.942 131.081L151.498 131.578C151.462 131.59 151.433 131.613 151.414 131.643C151.396 131.673 151.389 131.707 151.396 131.741C151.403 131.774 151.422 131.805 151.452 131.827C151.481 131.848 151.517 131.86 151.555 131.86H151.555Z" fill="#313A33"/>
<path d="M159.574 117.502L200.325 117.477L215.741 83.4991L238.738 92.2353L219.505 132.562L219.317 132.964C218.376 134.924 216.791 136.576 214.776 137.695C212.762 138.814 210.416 139.346 208.055 139.22L158.959 136.6L159.574 117.502Z" fill="#FF7C7C"/>
<path d="M209.499 138.725C211.801 138.722 214.053 138.121 215.978 136.995C217.903 135.87 219.419 134.269 220.34 132.389L220.529 131.99L237.048 97.8374L236.706 97.7044L219.997 132.258C219.06 134.172 217.487 135.784 215.491 136.878C213.494 137.971 211.17 138.494 208.83 138.375L159.529 135.78L160.14 117.122L201.154 117.097L213.102 91.1297L212.756 91.0039L200.904 116.765L159.777 116.79L159.145 136.094L159.326 136.103L208.807 138.707C209.038 138.719 209.27 138.725 209.499 138.725Z" fill="#313A33"/>
<path d="M253.901 141.755L269.562 280.714L268.823 280.781L253.163 141.822L253.901 141.755Z" fill="#313A33"/>
<path d="M189.199 141.755L204.86 280.714L204.121 280.781L188.461 141.822L189.199 141.755Z" fill="#313A33"/>
<path d="M54.2865 141.753L55.0251 141.82L39.3757 280.78L38.637 280.713L54.2865 141.753Z" fill="#313A33"/>
<path d="M40.1747 139.059H266.988C268.668 139.059 270.03 140.28 270.03 141.787C270.03 143.293 268.668 144.515 266.988 144.515H40.1747C38.4948 144.515 37.133 143.293 37.133 141.787C37.133 140.28 38.4948 139.059 40.1747 139.059Z" fill="#313A33"/>
<path opacity="0.8" d="M40.1747 139.059H266.988C268.668 139.059 270.03 140.28 270.03 141.787C270.03 143.293 268.668 144.515 266.988 144.515H40.1747C38.4948 144.515 37.133 143.293 37.133 141.787C37.133 140.28 38.4948 139.059 40.1747 139.059Z" fill="white"/>
<path d="M40.1744 144.848H266.987C267.438 144.852 267.886 144.776 268.304 144.624C268.722 144.472 269.103 144.247 269.423 143.963C269.744 143.678 269.999 143.339 270.172 142.966C270.346 142.592 270.435 142.191 270.435 141.787C270.435 141.382 270.346 140.981 270.172 140.608C269.999 140.234 269.744 139.896 269.423 139.611C269.103 139.326 268.722 139.101 268.304 138.949C267.886 138.798 267.438 138.721 266.987 138.726H40.1744C39.7232 138.721 39.2756 138.798 38.8574 138.949C38.4392 139.101 38.0587 139.326 37.7381 139.611C37.4174 139.896 37.1628 140.234 36.989 140.608C36.8153 140.981 36.7258 141.382 36.7258 141.787C36.7258 142.191 36.8153 142.592 36.989 142.966C37.1628 143.339 37.4174 143.678 37.7381 143.963C38.0587 144.247 38.4392 144.472 38.8574 144.624C39.2756 144.776 39.7232 144.852 40.1744 144.848ZM266.987 139.392C267.34 139.388 267.691 139.447 268.019 139.566C268.346 139.684 268.644 139.86 268.896 140.083C269.147 140.306 269.346 140.571 269.483 140.864C269.619 141.156 269.689 141.47 269.689 141.787C269.689 142.104 269.619 142.417 269.483 142.71C269.346 143.002 269.147 143.268 268.896 143.49C268.644 143.713 268.346 143.889 268.019 144.008C267.691 144.126 267.34 144.186 266.987 144.182H40.1744C39.821 144.186 39.4704 144.126 39.1427 144.008C38.8151 143.889 38.517 143.713 38.2657 143.49C38.0143 143.268 37.8148 143.002 37.6786 142.71C37.5425 142.417 37.4723 142.104 37.4723 141.787C37.4723 141.47 37.5425 141.156 37.6786 140.864C37.8148 140.571 38.0143 140.306 38.2657 140.083C38.517 139.86 38.8151 139.684 39.1427 139.566C39.4704 139.447 39.821 139.388 40.1744 139.392H266.987Z" fill="#313A33"/>
<path d="M40.1747 139.059H199.813C201.493 139.059 202.855 140.28 202.855 141.787C202.855 143.293 201.493 144.515 199.813 144.515H40.1747C38.4948 144.515 37.133 143.293 37.133 141.787C37.133 140.28 38.4948 139.059 40.1747 139.059Z" fill="white"/>
<path d="M40.1743 144.848H199.813C200.712 144.839 201.571 144.513 202.203 143.94C202.836 143.367 203.19 142.593 203.19 141.787C203.19 140.98 202.836 140.207 202.203 139.633C201.571 139.06 200.712 138.734 199.813 138.726H40.1743C39.7232 138.721 39.2755 138.798 38.8574 138.949C38.4392 139.101 38.0587 139.326 37.738 139.611C37.4173 139.896 37.1627 140.234 36.989 140.608C36.8152 140.981 36.7258 141.382 36.7258 141.787C36.7258 142.191 36.8152 142.592 36.989 142.966C37.1627 143.339 37.4173 143.678 37.738 143.963C38.0587 144.247 38.4392 144.472 38.8574 144.624C39.2755 144.776 39.7232 144.852 40.1743 144.848ZM199.813 139.392C200.516 139.399 201.187 139.655 201.681 140.103C202.175 140.551 202.452 141.156 202.452 141.787C202.452 142.417 202.175 143.022 201.681 143.47C201.187 143.919 200.516 144.174 199.813 144.182H40.1743C39.821 144.186 39.4704 144.126 39.1427 144.008C38.8151 143.889 38.517 143.713 38.2657 143.49C38.0143 143.268 37.8148 143.002 37.6786 142.71C37.5424 142.417 37.4723 142.104 37.4723 141.787C37.4723 141.47 37.5424 141.156 37.6786 140.864C37.8148 140.571 38.0143 140.306 38.2657 140.083C38.517 139.86 38.8151 139.684 39.1427 139.566C39.4704 139.447 39.821 139.388 40.1743 139.392H199.813Z" fill="#313A33"/>
<path d="M32.8598 237.835C32.9086 237.835 32.9569 237.827 33.0019 237.81C33.0469 237.793 33.0878 237.768 33.1222 237.737C33.645 237.264 34.4973 228.58 36.7925 202.727C37.7316 192.149 38.6188 182.157 39.2663 176.085C39.3123 175.651 39.4982 175.6 39.559 175.584C40.4454 175.342 43.1403 177.266 44.6449 178.95C44.7068 179.02 44.7966 179.064 44.8945 179.073C44.9924 179.083 45.0904 179.057 45.167 179.001C45.2435 178.945 45.2924 178.863 45.3027 178.775C45.3131 178.686 45.2842 178.597 45.2223 178.528C44.2271 177.414 40.9842 174.494 39.3457 174.94C39.0155 175.03 38.6036 175.29 38.5275 176.02C37.8793 182.098 36.9922 192.092 36.0527 202.673C34.6579 218.384 33.078 236.182 32.5585 237.303C32.5188 237.354 32.4951 237.413 32.49 237.474C32.4849 237.536 32.4987 237.598 32.5299 237.652C32.561 237.707 32.6083 237.754 32.6665 237.786C32.7247 237.818 32.7916 237.835 32.8598 237.835Z" fill="#313A33"/>
<path d="M40.2196 187.227C34.0626 182.759 32.0219 175.805 35.6616 171.694C39.3013 167.583 47.2431 167.873 53.4001 172.341C59.5571 176.809 61.5978 183.763 57.9581 187.874C54.3184 191.985 46.3766 191.695 40.2196 187.227Z" fill="#6EA079"/>
<path opacity="0.2" d="M40.2196 187.227C34.0626 182.759 32.0219 175.805 35.6616 171.694C39.3013 167.583 47.2431 167.873 53.4001 172.341C59.5571 176.809 61.5978 183.763 57.9581 187.874C54.3184 191.985 46.3766 191.695 40.2196 187.227Z" fill="white"/>
<path d="M56.2318 188.92C56.267 188.92 56.3015 188.911 56.3313 188.893C56.361 188.876 56.3848 188.852 56.3997 188.823C56.4147 188.794 56.4203 188.762 56.4159 188.731C56.4114 188.699 56.3972 188.669 56.3747 188.644L38.8277 169.488C38.7962 169.454 38.751 169.432 38.702 169.428C38.653 169.424 38.6042 169.437 38.5663 169.466C38.5284 169.494 38.5046 169.535 38.5 169.58C38.4954 169.624 38.5105 169.668 38.542 169.703L56.089 188.859C56.1064 188.878 56.1283 188.893 56.153 188.904C56.1777 188.914 56.2046 188.92 56.2318 188.92Z" fill="white"/>
<path d="M29.033 233.729C29.0922 233.729 29.1505 233.716 29.2031 233.691C29.2557 233.667 29.3011 233.631 29.3353 233.587C29.3696 233.543 29.3918 233.493 29.4002 233.44C29.4085 233.387 29.4027 233.333 29.3832 233.282L22.7916 216.122C22.5976 215.618 22.2669 215.166 21.8298 214.807C21.3928 214.449 20.8634 214.195 20.2901 214.07C19.7168 213.945 19.118 213.952 18.5484 214.09C17.9789 214.229 17.4568 214.494 17.0301 214.863L13.5452 217.876C13.474 217.938 13.4328 218.023 13.4305 218.112C13.4282 218.201 13.4652 218.287 13.5332 218.351C13.6012 218.416 13.6947 218.453 13.7931 218.455C13.8915 218.457 13.9868 218.424 14.058 218.362L17.5425 215.349C17.8794 215.058 18.2915 214.848 18.7412 214.739C19.1908 214.629 19.6636 214.624 20.1162 214.723C20.5688 214.821 20.9868 215.022 21.3318 215.305C21.6768 215.588 21.9379 215.945 22.0911 216.343L28.6819 233.503C28.7073 233.569 28.7548 233.626 28.8177 233.667C28.8806 233.707 28.9558 233.729 29.033 233.729Z" fill="#313A33"/>
<path d="M3.81029 227.377C-0.752641 224.107 -0.481474 216.916 4.41596 211.315C9.31339 205.713 16.9825 203.823 21.5455 207.093C26.1084 210.363 25.8372 217.554 20.9398 223.155C16.0424 228.757 8.37322 230.647 3.81029 227.377Z" fill="#6EA079"/>
<path d="M35.8523 236.741C35.9356 236.741 36.0165 236.715 36.082 236.668C36.1474 236.622 36.1935 236.556 36.2129 236.483L47.276 194.614C47.3516 194.328 47.5127 194.067 47.7415 193.86C47.9704 193.652 48.258 193.505 48.5729 193.436C48.8879 193.366 49.2178 193.377 49.5266 193.466C49.8353 193.555 50.1109 193.72 50.323 193.942L53.7329 197.509C53.7646 197.543 53.8034 197.571 53.8471 197.591C53.8908 197.611 53.9384 197.623 53.9873 197.627C54.0362 197.63 54.0853 197.625 54.1319 197.611C54.1785 197.597 54.2215 197.575 54.2586 197.546C54.2957 197.517 54.326 197.481 54.3479 197.442C54.3697 197.402 54.3827 197.359 54.3859 197.314C54.3892 197.27 54.3828 197.226 54.367 197.184C54.3512 197.142 54.3263 197.103 54.2939 197.069L50.8844 193.502C50.5828 193.187 50.1911 192.953 49.7521 192.826C49.3131 192.699 48.844 192.684 48.3963 192.783C47.9487 192.882 47.5398 193.091 47.2148 193.387C46.8897 193.682 46.6611 194.053 46.5539 194.459L35.4931 236.328C35.4708 236.415 35.4872 236.505 35.5386 236.581C35.59 236.657 35.6724 236.711 35.7677 236.731C35.7954 236.737 35.8238 236.741 35.8523 236.741Z" fill="#313A33"/>
<path d="M39.9339 206.81C38.5893 199.771 42.1478 193.337 47.8821 192.439C53.6163 191.542 59.3549 196.52 60.6995 203.56C62.0441 210.599 58.4856 217.033 52.7513 217.931C47.017 218.828 41.2785 213.85 39.9339 206.81Z" fill="#6EA079"/>
<path d="M32.8595 237.835C32.8747 237.835 32.89 237.834 32.9051 237.833C32.9535 237.827 33.0002 237.813 33.0427 237.792C33.0851 237.77 33.1224 237.741 33.1524 237.706C33.1824 237.671 33.2046 237.632 33.2176 237.589C33.2306 237.546 33.2343 237.502 33.2283 237.458L26.1651 185.541C26.0881 184.975 25.8324 184.442 25.4286 184.005C25.0248 183.568 24.4901 183.246 23.8889 183.077C23.2876 182.908 22.6454 182.9 22.0393 183.054C21.4333 183.208 20.8892 183.517 20.4725 183.944L12.3994 192.222C12.3342 192.289 12.3011 192.377 12.3072 192.466C12.3133 192.555 12.3582 192.638 12.432 192.697C12.5058 192.756 12.6025 192.786 12.7008 192.78C12.799 192.775 12.8908 192.734 12.9559 192.667L21.0291 184.389C21.3511 184.059 21.7716 183.82 22.24 183.701C22.7084 183.582 23.2047 183.588 23.6694 183.719C24.1341 183.849 24.5474 184.098 24.8594 184.436C25.1715 184.774 25.3691 185.186 25.4286 185.623L32.4914 237.54C32.5024 237.621 32.546 237.696 32.6138 237.751C32.6815 237.805 32.7689 237.835 32.8595 237.835Z" fill="#313A33"/>
<path d="M4.11912 196.823C1.30236 192.212 4.61651 185.672 11.5215 182.214C18.4264 178.757 26.3074 179.691 29.1242 184.301C31.9409 188.911 28.6268 195.451 21.7218 198.909C14.8169 202.367 6.93587 201.433 4.11912 196.823Z" fill="#6EA079"/>
<path opacity="0.2" d="M3.81029 227.377C-0.752641 224.107 -0.481474 216.916 4.41596 211.315C9.31339 205.713 16.9825 203.823 21.5455 207.093C26.1084 210.363 25.8372 217.554 20.9398 223.155C16.0424 228.757 8.37322 230.647 3.81029 227.377Z" fill="white"/>
<path opacity="0.5" d="M39.9339 206.81C38.5893 199.771 42.1478 193.337 47.8821 192.439C53.6163 191.542 59.3549 196.52 60.6995 203.56C62.0441 210.599 58.4856 217.033 52.7513 217.931C47.017 218.828 41.2785 213.85 39.9339 206.81Z" fill="white"/>
<path opacity="0.5" d="M4.11912 196.823C1.30236 192.212 4.61651 185.672 11.5215 182.214C18.4264 178.757 26.3074 179.691 29.1242 184.301C31.9409 188.911 28.6268 195.451 21.7218 198.909C14.8169 202.367 6.93587 201.433 4.11912 196.823Z" fill="white"/>
<path d="M23.8257 281.887H41.894L44.8884 229.551H20.8318L23.8257 281.887Z" fill="#313A33"/>
<path opacity="0.3" d="M23.8257 281.887H41.894L44.8884 229.551H20.8318L23.8257 281.887Z" fill="#C2C2C2"/>
<path d="M3.80977 227.543C3.83776 227.543 3.86539 227.537 3.89058 227.526C3.91577 227.515 3.93785 227.499 3.95521 227.479L21.6911 207.195C21.7216 207.16 21.7356 207.115 21.73 207.071C21.7243 207.027 21.6994 206.986 21.6608 206.959C21.6223 206.931 21.5731 206.918 21.5243 206.924C21.4754 206.929 21.4307 206.951 21.4002 206.986L3.66431 227.27C3.6426 227.295 3.62905 227.325 3.6252 227.356C3.62135 227.388 3.62736 227.42 3.64255 227.448C3.65774 227.476 3.6815 227.5 3.71108 227.517C3.74066 227.534 3.77487 227.543 3.80977 227.543Z" fill="white"/>
<path d="M5.2987 198.448C5.33821 198.447 5.37655 198.436 5.40816 198.414L28.1034 183.412C28.1432 183.385 28.1698 183.346 28.1773 183.302C28.1849 183.258 28.1729 183.213 28.1439 183.177C28.1148 183.141 28.0712 183.117 28.0225 183.11C27.9739 183.103 27.9242 183.114 27.8845 183.14L5.18923 198.143C5.15808 198.164 5.13507 198.194 5.12346 198.227C5.11185 198.261 5.11224 198.297 5.12455 198.331C5.13687 198.364 5.1605 198.393 5.19209 198.414C5.22367 198.434 5.26162 198.445 5.30056 198.445L5.2987 198.448Z" fill="white"/>
<path d="M53.6736 217.712C53.6897 217.712 53.7058 217.71 53.7214 217.706C53.7689 217.694 53.8093 217.666 53.8339 217.628C53.8586 217.589 53.8653 217.543 53.8528 217.5L46.6282 192.995C46.6144 192.953 46.5832 192.918 46.5411 192.896C46.499 192.875 46.4493 192.869 46.4026 192.88C46.3559 192.892 46.316 192.919 46.2911 192.956C46.2663 192.994 46.2586 193.039 46.2697 193.081L53.4943 217.587C53.5048 217.623 53.5281 217.654 53.5605 217.677C53.5929 217.699 53.6327 217.712 53.6736 217.712Z" fill="white"/>
<path d="M14.6145 282.831H275.739C275.808 282.831 275.875 282.806 275.924 282.762C275.973 282.718 276 282.658 276 282.596C276 282.534 275.973 282.474 275.924 282.43C275.875 282.386 275.808 282.361 275.739 282.361H14.6153C14.5461 282.361 14.4797 282.386 14.4308 282.43C14.3818 282.474 14.3543 282.534 14.3543 282.596C14.3543 282.658 14.3818 282.718 14.4308 282.762C14.4797 282.806 14.5461 282.831 14.6153 282.831H14.6145Z" fill="#313A33"/>
<g opacity="0.65">
<path d="M14.6145 282.831H275.739C275.808 282.831 275.875 282.806 275.924 282.762C275.973 282.718 276 282.658 276 282.596C276 282.534 275.973 282.474 275.924 282.43C275.875 282.386 275.808 282.361 275.739 282.361H14.6153C14.5461 282.361 14.4797 282.386 14.4308 282.43C14.3818 282.474 14.3543 282.534 14.3543 282.596C14.3543 282.658 14.3818 282.718 14.4308 282.762C14.4797 282.806 14.5461 282.831 14.6153 282.831H14.6145Z" fill="#313A33"/>
</g>
</g>
<defs>
<clipPath id="clip0_739_5598">
<rect width="276" height="283" fill="white" transform="matrix(-1 0 0 1 276 0)"/>
</clipPath>
</defs>
</svg>
