<svg width="20" height="20" viewBox="0 0 20 20" fill="none" xmlns="http://www.w3.org/2000/svg">
<g clip-path="url(#clip0_352_1669)">
<path d="M19.2675 7.5575L12.9466 1.23583C12.1643 0.45582 11.1047 0.017807 9.99998 0.017807C8.89526 0.017807 7.83561 0.45582 7.05331 1.23583L0.73248 7.5575C0.499501 7.78898 0.314788 8.06441 0.189048 8.36782C0.0633088 8.67122 -0.000955851 8.99657 -2.04513e-05 9.325V17.5058C-2.04513e-05 18.1689 0.263372 18.8048 0.732213 19.2736C1.20105 19.7424 1.83694 20.0058 2.49998 20.0058H17.5C18.163 20.0058 18.7989 19.7424 19.2677 19.2736C19.7366 18.8048 20 18.1689 20 17.5058V9.325C20.0009 8.99657 19.9367 8.67122 19.8109 8.36782C19.6852 8.06441 19.5005 7.78898 19.2675 7.5575ZM12.5 18.3392H7.49998V15.0608C7.49998 14.3978 7.76337 13.7619 8.23221 13.2931C8.70105 12.8242 9.33694 12.5608 9.99998 12.5608C10.663 12.5608 11.2989 12.8242 11.7677 13.2931C12.2366 13.7619 12.5 14.3978 12.5 15.0608V18.3392ZM18.3333 17.5058C18.3333 17.7268 18.2455 17.9388 18.0892 18.0951C17.933 18.2514 17.721 18.3392 17.5 18.3392H14.1666V15.0608C14.1666 13.9558 13.7277 12.896 12.9463 12.1146C12.1649 11.3331 11.105 10.8942 9.99998 10.8942C8.89491 10.8942 7.8351 11.3331 7.0537 12.1146C6.2723 12.896 5.83331 13.9558 5.83331 15.0608V18.3392H2.49998C2.27897 18.3392 2.067 18.2514 1.91072 18.0951C1.75444 17.9388 1.66665 17.7268 1.66665 17.5058V9.325C1.66742 9.10414 1.75514 8.89248 1.91081 8.73583L8.23165 2.41666C8.7014 1.9491 9.3372 1.68661 9.99998 1.68661C10.6628 1.68661 11.2986 1.9491 11.7683 2.41666L18.0891 8.73833C18.2442 8.89437 18.3319 9.10501 18.3333 9.325V17.5058Z" fill="#313A33"/>
</g>
<defs>
<clipPath id="clip0_352_1669">
<rect width="20" height="20" fill="white"/>
</clipPath>
</defs>
</svg>
